<?xml version="1.0" encoding="UTF-8" standalone="no"?>
<svg
   xmlns:dc="http://purl.org/dc/elements/1.1/"
   xmlns:cc="http://creativecommons.org/ns#"
   xmlns:rdf="http://www.w3.org/1999/02/22-rdf-syntax-ns#"
   xmlns:svg="http://www.w3.org/2000/svg"
   xmlns="http://www.w3.org/2000/svg"
   xmlns:sodipodi="http://sodipodi.sourceforge.net/DTD/sodipodi-0.dtd"
   xmlns:inkscape="http://www.inkscape.org/namespaces/inkscape"
   version="1.0"
   width="297px"
   height="497px"
   viewBox="0 0 2970 4970"
   preserveAspectRatio="xMidYMid meet"
   id="svg2804"
   sodipodi:docname="44.svg"
   inkscape:version="0.92.4 (5da689c313, 2019-01-14)">
  <metadata
     id="metadata2810">
    <rdf:RDF>
      <cc:Work
         rdf:about="">
        <dc:format>image/svg+xml</dc:format>
        <dc:type
           rdf:resource="http://purl.org/dc/dcmitype/StillImage" />
      </cc:Work>
    </rdf:RDF>
  </metadata>
  <defs
     id="defs2808" />
  <sodipodi:namedview
     pagecolor="#ffffff"
     bordercolor="#666666"
     borderopacity="1"
     objecttolerance="10"
     gridtolerance="10"
     guidetolerance="10"
     inkscape:pageopacity="0"
     inkscape:pageshadow="2"
     inkscape:window-width="1366"
     inkscape:window-height="705"
     id="namedview2806"
     showgrid="false"
     inkscape:zoom="0.67153803"
     inkscape:cx="74.685977"
     inkscape:cy="403.95005"
     inkscape:window-x="1358"
     inkscape:window-y="-8"
     inkscape:window-maximized="1"
     inkscape:current-layer="svg2804" />
  <g
     id="layer101"
     fill="#020202"
     stroke="none"
     style="fill:#aa8800;stroke:none">
    <path
       d="M1000 4959 c-19 -5 -71 -13 -115 -18 -104 -12 -166 -45 -195 -105 -44 -93 -41 -347 8 -501 10 -34 25 -111 32 -172 14 -113 12 -150 -20 -375 -11 -84 -88 -240 -172 -350 -30 -38 -48 -76 -147 -301 -67 -153 -91 -225 -91 -274 0 -29 -6 -37 -47 -61 -71 -41 -83 -57 -83 -103 0 -23 -18 -98 -40 -167 -45 -142 -71 -285 -63 -355 5 -44 3 -48 -31 -79 -33 -29 -36 -37 -36 -83 0 -28 7 -103 17 -166 9 -63 18 -157 20 -209 3 -89 6 -136 32 -409 20 -209 21 -213 58 -248 19 -18 51 -38 72 -44 33 -10 41 -19 60 -64 12 -28 42 -82 66 -120 25 -37 45 -72 45 -77 0 -9 29 -53 67 -101 20 -25 22 -36 17 -82 -6 -51 -5 -55 23 -82 17 -15 43 -47 57 -70 15 -22 40 -47 56 -53 16 -7 41 -27 55 -46 14 -19 31 -34 38 -34 7 0 31 -22 54 -49 39 -45 51 -52 144 -82 99 -32 102 -32 187 -20 48 6 106 14 130 17 24 4 80 -1 128 -11 47 -9 96 -14 110 -11 15 4 42 -1 71 -14 53 -23 79 -25 113 -5 34 20 182 19 235 -1 22 -8 51 -19 65 -23 59 -18 150 40 150 97 0 40 6 42 63 29 60 -13 93 0 113 49 9 20 28 43 46 52 17 9 50 33 72 53 23 20 60 46 83 57 22 12 50 32 60 46 11 13 33 32 50 43 17 10 63 55 102 101 54 62 71 90 71 112 0 19 8 37 21 48 12 9 29 35 39 57 20 45 49 76 100 108 21 14 37 34 42 52 17 75 30 206 24 265 -3 36 -5 72 -5 80 1 117 8 397 10 405 6 21 -12 83 -29 98 -15 14 -18 38 -20 181 -2 105 1 173 8 185 21 40 17 249 -6 293 -8 15 -14 37 -14 50 -1 55 -95 333 -124 366 -30 33 -74 55 -125 61 l-45 6 -17 75 c-9 41 -22 91 -29 110 -24 64 -48 134 -84 240 -19 58 -46 137 -60 175 -32 88 -32 128 -2 196 25 57 101 157 156 206 43 38 36 63 -17 63 -21 0 -88 17 -148 38 -141 48 -231 110 -409 282 -160 154 -212 201 -296 267 -89 70 -223 209 -248 258 -23 45 -33 52 -152 112 -82 42 -88 43 -175 42 -49 -1 -106 -5 -125 -10z"
       id="path2529"
       style="fill:#aa8800;stroke:none" />
  </g>
  <g
     id="layer102"
     fill="#303030"
     stroke="none"
     style="stroke:none">
    <path
       d="M975 4949 c-16 -5 -63 -12 -104 -15 -147 -14 -195 -67 -210 -235 -9 -104 6 -276 26 -300 26 -31 69 -199 52 -199 -6 0 -7 -40 -3 -92 3 -51 1 -127 -5 -168 -6 -41 -15 -107 -20 -147 -13 -90 -87 -242 -173 -355 -30 -38 -48 -76 -147 -301 -67 -153 -91 -225 -91 -274 0 -29 -6 -37 -47 -61 -71 -41 -83 -56 -83 -105 0 -23 -18 -98 -40 -167 -45 -139 -71 -282 -63 -353 5 -44 3 -48 -31 -79 -33 -29 -36 -37 -36 -83 0 -28 7 -103 17 -166 9 -63 18 -157 20 -209 3 -89 6 -136 32 -409 19 -203 22 -213 53 -243 16 -14 48 -34 71 -43 38 -14 45 -23 75 -88 18 -40 44 -85 58 -100 13 -15 33 -46 43 -69 10 -24 35 -65 56 -92 35 -46 37 -51 30 -102 -6 -51 -5 -55 23 -81 16 -16 42 -47 56 -70 15 -22 40 -47 56 -53 16 -7 41 -27 55 -46 14 -19 31 -34 38 -34 7 0 31 -22 54 -49 39 -45 51 -52 144 -82 99 -32 102 -32 187 -20 48 6 106 14 130 17 24 4 79 -1 127 -11 47 -9 98 -14 114 -10 20 4 42 0 70 -14 47 -24 76 -26 111 -6 34 20 182 19 235 -1 22 -8 51 -19 65 -23 59 -18 150 40 150 97 0 40 6 42 63 29 60 -13 93 0 113 49 9 20 28 43 46 52 17 9 50 33 72 53 23 20 60 46 83 57 22 12 50 32 60 46 11 13 33 32 50 43 17 10 63 55 102 101 54 62 71 90 71 112 0 19 8 37 21 48 12 9 29 35 39 57 20 45 49 76 100 108 21 14 37 34 42 52 17 75 30 206 24 265 -3 36 -5 72 -5 80 1 166 8 403 12 406 9 9 -14 78 -33 99 -15 18 -17 40 -15 190 1 94 5 210 8 259 6 83 1 133 -21 246 -16 77 -52 200 -76 259 -13 31 -26 68 -30 83 -9 39 -69 80 -135 93 l-56 12 -16 69 c-9 38 -26 89 -38 112 -12 24 -20 47 -17 50 3 3 -1 16 -9 29 -9 13 -13 23 -10 23 3 0 -2 17 -11 38 -14 32 -25 66 -38 123 -2 9 -20 63 -40 121 -20 57 -36 122 -36 144 0 73 64 181 168 282 24 24 42 48 39 55 -2 7 -30 15 -63 18 -184 20 -400 132 -536 278 -77 83 -175 173 -313 288 -49 41 -101 85 -115 97 -13 11 -38 31 -54 43 -16 12 -44 44 -63 70 -58 82 -129 148 -195 181 -59 31 -69 33 -158 31 -52 -1 -108 -6 -125 -10z m171 -254 c-3 -8 -1 -15 5 -15 6 0 9 -6 6 -14 -3 -7 3 -20 14 -29 26 -22 14 -49 -20 -45 -19 2 -27 10 -29 28 -2 14 -8 30 -13 36 -6 7 -12 21 -14 33 -3 18 1 21 27 21 23 0 29 -4 24 -15z m79 -166 c11 -1 27 1 35 4 34 13 97 27 126 27 35 0 59 -21 75 -68 6 -18 18 -32 26 -32 12 0 11 -3 -2 -17 -16 -15 -16 -18 -1 -28 9 -7 16 -17 16 -24 0 -11 13 -15 38 -12 6 1 12 -4 12 -11 0 -8 15 -22 33 -33 50 -29 59 -46 34 -67 -20 -18 -20 -18 11 -12 27 6 33 3 41 -19 5 -14 15 -28 20 -32 6 -3 11 -20 11 -37 0 -26 -2 -29 -15 -18 -12 10 -15 10 -15 -4 0 -9 8 -16 20 -16 16 0 20 7 20 30 0 17 4 30 10 30 5 0 9 -15 8 -32 0 -18 2 -43 6 -55 6 -18 4 -21 -15 -16 -18 5 -20 3 -14 -16 5 -17 2 -21 -14 -21 -12 0 -21 -4 -21 -9 0 -5 -3 -18 -7 -28 -6 -16 -5 -16 10 -4 10 8 20 11 24 7 3 -3 14 8 24 24 23 38 40 38 69 0 13 -16 30 -30 39 -30 17 0 51 -33 51 -50 0 -6 -5 -10 -11 -10 -6 0 -9 -7 -6 -14 4 -10 -2 -18 -16 -22 -12 -4 -26 -12 -30 -18 -6 -8 -10 -8 -14 2 -5 13 -34 17 -32 5 4 -27 -3 -43 -20 -43 -11 0 -23 5 -26 10 -9 15 -43 12 -52 -5 -8 -14 -87 -47 -95 -39 -3 2 -13 -5 -23 -16 -10 -11 -28 -20 -41 -20 -13 0 -43 -10 -66 -23 -29 -16 -55 -22 -80 -20 -32 3 -40 -1 -64 -32 -19 -25 -29 -32 -35 -24 -6 10 -11 10 -22 0 -13 -10 -16 -8 -22 9 -5 16 -10 18 -20 10 -10 -8 -14 -8 -17 1 -3 8 -9 9 -18 4 -8 -5 -21 -10 -30 -11 -8 -1 -35 -5 -60 -9 -34 -5 -41 -4 -30 4 12 9 8 10 -15 5 -16 -4 -31 -11 -33 -16 -5 -12 -40 -10 -48 3 -4 8 -9 7 -15 -2 -8 -11 -11 -11 -20 4 -12 21 -37 16 -88 -19 -19 -13 -38 -21 -42 -19 -3 3 -10 -5 -13 -18 -7 -21 -7 -21 -16 -2 -6 13 -9 15 -9 5 -1 -8 -12 -20 -26 -27 -32 -14 -25 -1 28 56 20 22 37 44 37 49 0 5 10 17 21 28 18 16 39 55 41 74 0 3 9 27 19 53 11 26 19 59 19 72 0 15 7 26 20 30 11 3 20 15 20 26 0 10 4 19 9 19 5 0 13 9 16 20 3 11 12 20 18 20 18 0 47 96 34 109 -8 8 -5 11 11 11 34 0 51 39 55 125 1 28 6 56 10 63 5 7 4 12 -2 12 -6 0 -11 5 -11 11 0 6 7 8 16 5 10 -4 18 3 25 23 6 16 20 32 32 36 l22 8 -22 4 c-13 2 -23 9 -23 14 0 6 3 8 8 6 4 -3 7 5 7 18 0 13 -3 21 -7 18 -5 -2 -8 3 -8 11 0 19 50 26 70 10 8 -7 24 -13 35 -15z m66 -1141 c45 8 103 -8 80 -23 -6 -3 -9 -11 -6 -16 4 -5 0 -9 -7 -10 -7 0 -24 -3 -38 -5 -14 -2 -65 -7 -115 -10 l-90 -7 25 27 c14 14 35 26 48 26 12 0 25 7 28 15 5 11 10 13 19 5 7 -6 29 -7 56 -2z m-681 -42 c-5 -15 -15 -24 -20 -21 -10 6 -6 19 15 41 15 17 17 10 5 -20z m-57 -108 c-10 -12 -19 -15 -21 -8 -7 20 7 40 23 34 14 -6 14 -9 -2 -26z m1257 -133 c30 -19 69 -35 85 -35 47 -1 77 -30 73 -71 -3 -35 -21 -50 -80 -64 l-28 -7 0 61 c0 67 -15 85 -52 62 -11 -7 -21 -11 -22 -9 -26 40 -35 58 -31 58 3 0 1 9 -5 20 -15 28 -2 25 60 -15z m-765 -27 c-2 -13 -8 -22 -14 -20 -7 1 -11 -13 -11 -38 0 -29 -4 -40 -15 -40 -12 0 -14 -7 -9 -27 9 -38 14 -44 25 -37 5 3 15 2 22 -3 15 -10 38 -10 55 1 7 4 16 5 20 1 4 -4 1 -10 -5 -12 -7 -3 -13 -11 -13 -19 0 -16 -16 -19 -25 -3 -5 6 -11 4 -19 -7 -7 -9 -18 -14 -23 -11 -6 4 -17 0 -24 -9 -15 -18 -93 -11 -137 12 -15 8 -40 14 -55 14 -15 0 -44 7 -63 15 -29 12 -35 19 -31 35 3 11 1 20 -4 20 -5 0 -9 8 -9 19 0 14 10 21 38 26 35 6 110 35 142 56 43 27 98 49 126 49 26 0 30 -4 29 -22z m-345 -267 c0 -11 3 -26 6 -34 3 -10 -3 -20 -15 -27 -17 -9 -22 -8 -27 5 -4 9 1 21 11 29 13 9 15 15 7 20 -17 10 -15 26 3 26 8 0 15 -9 15 -19z m466 -241 c13 0 26 -5 29 -11 4 -5 21 -9 38 -7 26 2 33 -1 35 -19 5 -32 -24 -81 -61 -104 -51 -32 -116 -9 -138 49 -5 12 -15 22 -24 22 -8 0 -15 8 -15 18 0 21 90 73 105 61 5 -5 19 -9 31 -9z m467 -78 c5 -29 -22 -57 -63 -66 -32 -6 -90 10 -90 26 0 5 5 6 10 3 6 -3 10 -1 10 6 0 7 3 10 6 6 7 -7 84 32 84 42 0 4 9 7 19 7 13 0 21 -9 24 -24z m-1342 -367 c6 -55 15 -117 21 -137 6 -20 8 -44 4 -53 -3 -9 -2 -14 2 -11 5 3 16 -43 26 -102 10 -59 23 -118 28 -132 6 -14 9 -62 8 -108 -1 -47 3 -89 9 -96 6 -7 12 -33 13 -56 2 -68 48 -177 138 -327 122 -203 177 -274 263 -331 20 -13 37 -31 37 -39 0 -10 7 -14 20 -10 11 3 27 -1 34 -9 8 -8 20 -12 28 -9 7 3 46 -17 87 -45 41 -27 80 -50 87 -50 8 0 14 -5 14 -11 0 -6 8 -8 19 -4 11 3 21 0 24 -8 7 -18 47 -29 47 -14 0 7 4 6 9 -2 5 -8 18 -15 28 -16 10 -1 35 -6 56 -10 22 -4 37 -3 37 2 0 15 33 12 52 -4 17 -15 38 -10 38 8 0 6 -9 7 -21 4 -15 -5 -19 -4 -15 4 4 6 21 11 37 11 17 0 28 -3 26 -8 -3 -4 14 -6 36 -6 23 1 93 3 156 4 147 3 231 14 273 35 18 9 67 28 108 42 41 14 82 31 91 39 8 8 23 14 32 14 30 0 90 45 142 106 50 58 155 211 155 225 0 4 3 9 7 11 16 6 73 100 68 108 -6 10 10 47 30 66 19 20 64 4 81 -27 8 -16 13 -37 12 -46 -2 -10 5 -19 16 -21 11 -2 16 0 12 7 -4 6 -3 11 3 11 15 0 26 -23 13 -28 -8 -2 -8 -11 -1 -28 14 -40 11 -49 -12 -28 -21 19 -21 19 -18 -17 2 -21 -3 -44 -10 -53 -11 -13 -11 -19 -1 -31 7 -8 8 -15 3 -15 -8 0 -47 -58 -48 -72 0 -3 -3 -9 -7 -13 -4 -4 -4 -13 -2 -20 3 -7 -4 -23 -15 -34 -12 -12 -22 -33 -22 -48 -2 -25 -2 -24 -9 7 l-7 35 -2 -32 c0 -18 -6 -33 -12 -33 -5 0 -8 4 -5 8 2 4 0 14 -5 22 -8 13 -10 13 -19 0 -5 -8 -10 -24 -10 -35 0 -17 -2 -17 -10 -5 -8 12 -10 10 -11 -10 -1 -14 -1 -28 0 -32 0 -3 -12 -11 -28 -16 -26 -9 -28 -8 -24 9 4 13 0 19 -11 19 -9 0 -16 -6 -16 -14 0 -8 -6 -16 -12 -19 -10 -3 -10 -9 0 -27 19 -31 7 -37 -13 -6 -21 31 -35 33 -35 6 0 -25 -20 -27 -21 -2 0 14 -2 14 -9 -3 -9 -19 -9 -19 -16 3 -8 27 -24 29 -24 2 0 -11 5 -20 10 -20 6 0 10 -6 10 -14 0 -8 8 -17 18 -19 9 -2 5 -3 -10 -2 -18 1 -28 -3 -28 -12 0 -7 9 -13 20 -13 11 0 20 -7 20 -16 0 -10 -4 -12 -12 -7 -7 4 -21 6 -30 5 -14 -3 -18 4 -18 30 -1 28 -2 30 -11 14 -8 -13 -8 -24 1 -42 7 -13 16 -21 21 -19 12 8 39 -6 33 -17 -3 -5 -11 -7 -18 -5 -9 3 -11 -4 -8 -26 4 -25 2 -29 -11 -24 -9 3 -19 2 -22 -3 -10 -17 -25 -11 -25 9 0 14 -7 19 -25 17 -14 0 -23 -5 -21 -11 2 -5 9 -9 15 -7 6 1 11 -5 11 -13 0 -8 -4 -15 -9 -15 -6 0 -6 -12 -1 -30 8 -29 8 -29 -16 -14 -13 9 -24 20 -24 25 0 5 -10 7 -23 4 -15 -4 -28 -1 -36 9 -20 24 -32 19 -19 -9 6 -13 15 -22 20 -19 11 7 48 -5 48 -16 0 -5 -6 -7 -14 -4 -7 3 -21 -2 -30 -11 -14 -15 -17 -15 -22 -1 -3 9 -11 16 -16 16 -6 0 -8 -6 -5 -14 3 -8 -1 -20 -9 -26 -8 -7 -14 -24 -14 -39 0 -21 -2 -23 -11 -11 -8 11 -9 8 -4 -13 4 -19 2 -26 -5 -22 -5 3 -10 17 -10 31 0 18 -4 23 -13 17 -6 -4 -18 -8 -25 -9 -22 -4 -24 -11 -13 -32 6 -12 11 -27 10 -34 0 -10 -2 -10 -6 0 -2 6 -8 10 -13 7 -4 -3 -6 5 -2 17 5 21 4 22 -12 9 -9 -8 -15 -20 -12 -26 2 -7 -1 -18 -7 -25 -9 -10 -9 -14 1 -17 6 -3 12 -12 12 -20 0 -9 -3 -14 -6 -10 -8 8 -34 -18 -34 -33 0 -6 -5 -8 -11 -4 -8 4 -8 9 0 17 16 16 14 24 -8 30 -12 3 -22 -1 -25 -9 -3 -8 -11 -14 -17 -14 -8 0 -8 4 1 15 7 8 9 15 4 15 -5 0 -1 7 9 14 12 9 14 16 8 21 -6 3 -11 14 -11 23 1 15 2 15 15 -2 20 -27 19 -11 -2 20 -20 32 -60 49 -78 34 -9 -8 -15 -7 -18 2 -3 7 -6 3 -6 -10 -1 -13 -5 -20 -11 -17 -18 11 -11 -27 8 -41 16 -13 16 -13 -3 -14 -11 0 -29 -7 -39 -15 -24 -18 -37 -19 -34 -3 2 6 -6 14 -17 16 -18 4 -18 3 -5 -14 8 -10 10 -15 4 -11 -6 3 -20 0 -30 -8 -27 -20 -36 -18 -29 5 5 16 2 20 -14 20 -14 0 -23 9 -27 25 -7 29 -18 31 -67 10 -43 -18 -50 -19 -42 -5 3 6 2 10 -4 10 -5 0 -13 9 -16 20 -3 11 -15 20 -26 20 -24 0 -24 -5 3 -42 14 -21 17 -29 7 -26 -8 2 -18 14 -24 26 -5 12 -16 22 -23 22 -7 0 -20 7 -28 15 -9 8 -21 15 -27 15 -8 0 -7 -4 2 -9 12 -8 12 -11 0 -23 -15 -16 -36 -13 -57 9 -8 7 -18 11 -23 8 -5 -4 -9 0 -9 7 0 7 -11 18 -25 25 -20 9 -25 8 -25 -2 0 -8 5 -17 10 -20 16 -10 12 -23 -7 -21 -10 0 -21 7 -24 15 -3 9 -10 3 -18 -17 -8 -18 -19 -32 -25 -32 -14 0 -38 15 -37 24 1 3 1 14 1 24 0 14 -2 15 -10 2 -11 -17 -14 -15 -29 25 -10 28 -10 27 -6 -15 6 -45 6 -45 -8 -15 -16 34 -54 71 -63 62 -4 -4 -1 -13 6 -22 17 -20 11 -24 -23 -18 -16 3 -27 11 -25 17 2 6 -6 21 -18 34 l-21 22 1 -32 c1 -25 -4 -34 -18 -36 -10 -2 -22 2 -27 10 -7 10 -9 8 -9 -7 -1 -20 -1 -20 -15 -1 -8 11 -13 28 -9 38 3 10 1 18 -5 18 -6 0 -11 8 -11 19 0 10 -7 24 -15 31 -12 10 -16 9 -21 -4 -3 -9 -11 -16 -17 -16 -6 0 -8 3 -4 6 7 7 -23 86 -36 95 -13 9 0 29 19 29 8 0 14 5 14 11 0 6 -9 8 -22 4 -31 -10 -39 -18 -41 -44 -1 -20 -17 -31 -17 -11 0 17 -34 50 -52 50 -9 0 -22 -8 -28 -18 -9 -14 -10 -13 -4 6 14 52 12 72 -7 72 -11 0 -19 5 -19 10 0 6 -7 10 -16 10 -10 0 -14 6 -11 14 3 8 -1 17 -8 20 -8 3 -12 12 -9 19 3 8 -1 17 -10 20 -11 5 -12 14 -5 46 9 42 8 76 -4 87 -14 14 -7 26 8 14 9 -7 14 -19 11 -27 -3 -7 1 -13 9 -13 20 0 19 17 -3 41 -20 21 -57 16 -48 -6 2 -7 -1 -18 -7 -24 -8 -8 -7 -11 5 -11 9 0 20 -5 24 -12 4 -6 3 -8 -4 -4 -6 3 -18 -4 -26 -16 -16 -22 -16 -22 -16 15 0 38 -15 51 -23 19 -3 -9 -5 0 -6 21 -1 23 -5 36 -11 32 -6 -3 -10 1 -10 9 0 9 -5 16 -11 16 -8 0 -9 15 -5 45 6 37 5 44 -8 39 -14 -5 -43 31 -38 49 1 4 -3 7 -8 7 -16 0 -12 37 5 44 8 3 15 1 15 -3 0 -5 7 -11 14 -14 10 -4 13 -1 10 7 -3 8 -1 17 5 20 6 4 8 13 5 20 -6 16 -50 15 -47 -1 2 -8 -7 -9 -27 -3 -28 8 -30 7 -29 -18 1 -17 3 -21 6 -9 6 24 23 11 23 -18 0 -18 -4 -22 -19 -18 -11 3 -22 12 -24 22 -3 11 -5 9 -6 -6 0 -13 -6 -23 -12 -23 -12 0 -2 42 13 51 11 7 -1 41 -12 34 -4 -3 -6 13 -3 35 5 33 3 40 -11 40 -9 0 -16 -5 -16 -12 0 -6 -3 -8 -7 -5 -3 4 2 16 12 27 16 17 14 63 -2 46 -6 -5 -32 56 -33 75 0 4 10 10 23 13 l22 7 -24 10 c-19 7 -22 12 -13 21 9 9 8 16 -5 30 -15 17 -15 21 0 54 20 41 20 44 7 44 -5 0 -10 -10 -10 -22 0 -21 0 -21 -14 -3 -9 13 -11 27 -5 42 5 13 5 23 1 23 -6 0 -8 160 -1 185 1 6 0 17 -4 25 -6 18 -18 93 -19 133 -1 15 -7 27 -15 27 -7 0 -13 5 -13 10 0 6 10 10 23 10 12 0 29 5 37 10 11 7 5 10 -23 10 -38 0 -38 1 -32 30 5 21 2 35 -9 46 -20 19 -21 50 -2 57 16 6 66 -13 66 -25 0 -5 5 -8 11 -8 7 0 9 9 4 23 -19 63 -3 147 29 147 6 0 4 -5 -4 -10 -13 -9 -7 -14 13 -11 4 0 7 -3 7 -7 0 -4 12 -8 27 -7 20 0 28 6 33 26 12 41 31 72 41 62 5 -5 13 -53 20 -108z m1697 -152 c-10 -2 -28 -2 -40 0 -13 2 -5 4 17 4 22 1 32 -1 23 -4z m-1130 -20 c-16 -2 -40 -2 -55 0 -16 2 -3 4 27 4 30 0 43 -2 28 -4z m1866 -100 c-3 -32 -11 -62 -18 -66 -8 -6 -8 -10 2 -14 17 -7 5 -23 -19 -23 -10 0 -19 -4 -19 -8 0 -4 10 -8 23 -7 20 0 37 -18 20 -21 -29 -5 -52 -18 -47 -25 3 -5 1 -9 -5 -9 -5 0 -13 -9 -16 -20 -9 -29 -24 -15 -21 18 2 15 4 33 5 40 0 7 5 11 10 7 5 -3 13 0 17 6 4 8 -3 9 -25 4 -20 -4 -31 -3 -31 4 0 6 5 11 10 11 6 0 10 14 10 31 0 18 9 42 23 56 83 94 91 95 81 16z m-2199 7 c3 -5 42 -10 86 -10 55 0 79 -4 79 -12 0 -9 3 -9 11 -1 7 7 47 9 118 6 99 -5 128 -14 114 -35 -2 -5 1 -16 8 -24 10 -13 14 -12 31 2 11 11 16 25 12 36 -5 17 0 19 58 16 60 -3 63 -4 66 -30 3 -26 22 -41 22 -18 0 17 26 11 45 -10 15 -17 16 -24 7 -45 -6 -14 -16 -25 -21 -25 -5 0 -11 -10 -15 -22 -5 -19 -8 -21 -16 -8 -8 13 -10 13 -10 -2 0 -10 -7 -15 -17 -14 -19 3 -31 26 -14 26 6 0 11 5 11 10 0 11 -28 7 -98 -16 -46 -15 -128 -21 -139 -11 -3 4 14 7 38 7 52 1 79 18 79 51 l0 24 -112 -3 c-106 -3 -119 -2 -197 27 -47 17 -87 31 -89 31 -3 0 11 -14 29 -30 50 -44 109 -77 163 -91 26 -6 44 -14 42 -17 -8 -7 -124 27 -166 48 -45 23 -130 104 -130 123 0 9 -6 18 -12 20 -10 4 -10 6 -1 6 6 1 15 -3 18 -9z m1315 -7 c0 -5 -4 -15 -10 -23 -12 -19 6 -40 36 -40 21 0 24 5 24 36 l0 35 78 -5 c89 -6 121 -14 101 -27 -10 -6 -10 -11 0 -23 17 -21 23 -20 51 4 24 21 82 35 130 31 27 -2 -21 -27 -105 -54 -100 -33 -199 -36 -315 -12 -19 4 -22 3 -10 -5 13 -9 13 -12 -3 -21 -18 -10 -18 -12 3 -26 12 -9 43 -21 69 -28 37 -10 42 -14 27 -20 -44 -19 -209 67 -199 104 2 9 -3 23 -11 30 -9 8 -16 22 -16 32 0 17 8 19 75 19 41 0 75 -3 75 -7z m856 -220 c-11 -11 -19 6 -11 24 8 17 8 17 12 0 3 -10 2 -21 -1 -24z m35 -27 c5 -6 9 -18 9 -28 0 -10 5 -18 11 -18 5 0 7 -5 3 -11 -3 -6 -1 -14 5 -18 8 -6 9 -15 2 -34 -10 -26 -12 -26 -80 -23 -79 5 -99 12 -81 30 8 8 13 7 20 -4 8 -13 10 -12 10 3 0 9 -4 17 -10 17 -5 0 -10 5 -10 11 0 5 5 7 10 4 6 -3 10 -1 10 4 0 7 7 7 21 -1 18 -11 23 -11 26 0 4 9 9 10 18 2 9 -8 11 -4 7 15 -2 14 -8 28 -13 31 -5 3 -9 12 -9 20 0 8 5 12 11 9 6 -4 13 3 17 16 6 22 7 22 10 4 2 -11 8 -24 13 -29z m-1621 -56 c0 -5 -6 -10 -14 -10 -20 0 -31 -19 -18 -32 13 -13 -6 -58 -24 -58 -7 0 -17 -7 -22 -16 -6 -11 -29 -17 -73 -21 -104 -9 -124 -9 -125 2 0 6 -6 23 -13 39 -14 35 -8 56 16 56 10 0 30 7 46 14 15 8 27 11 27 5 0 -5 18 -9 40 -9 22 0 40 4 40 9 0 6 19 9 42 9 23 0 44 5 46 11 5 14 32 15 32 1z m736 -72 c37 -35 42 -48 19 -48 -8 0 -15 -4 -15 -9 0 -5 -11 -8 -25 -7 -29 3 -54 32 -55 62 0 45 30 45 76 2z m24 12 c13 -11 19 -20 13 -20 -5 0 -18 9 -28 20 -10 11 -16 20 -13 20 3 0 15 -9 28 -20z m-124 -22 c-3 -13 -5 -25 -5 -27 -1 -3 -6 0 -12 6 -13 13 -5 43 11 43 5 0 8 -10 6 -22z m891 -43 c1 -5 -13 -11 -32 -12 -36 -3 -49 12 -17 20 25 7 45 4 49 -8z m-17 -41 c24 -15 24 -15 -19 -10 -30 3 -40 1 -30 -5 12 -7 11 -9 -3 -9 -10 0 -18 4 -18 10 0 8 28 29 40 29 3 0 16 -7 30 -15z m23 -41 c-4 -9 0 -11 13 -7 14 4 16 3 5 -4 -7 -5 -10 -15 -7 -21 4 -6 3 -11 -3 -11 -5 0 -13 9 -16 21 -7 20 -8 20 -21 -6 -17 -34 -17 -35 1 -35 8 0 15 -4 15 -10 0 -5 -5 -10 -11 -10 -5 0 -7 -4 -4 -10 9 -14 35 -12 35 3 0 6 7 21 16 32 14 19 15 18 13 -10 -3 -38 10 -77 22 -70 11 8 11 -6 0 -24 -5 -7 -13 -11 -19 -7 -6 3 -14 1 -18 -5 -12 -20 -35 20 -24 41 8 14 5 16 -16 12 -14 -2 -24 -1 -23 4 4 23 -2 45 -11 39 -6 -4 -8 -11 -5 -16 4 -5 -1 -9 -9 -9 -19 0 -20 5 -6 30 6 12 7 28 1 43 -12 32 3 47 45 45 23 -1 31 -5 27 -15z m-199 -728 c11 -8 16 -18 12 -22 -3 -4 -16 3 -28 15 -25 25 -13 29 16 7z m-389 -305 c3 -5 -3 -10 -15 -10 -12 0 -18 5 -15 10 3 6 10 10 15 10 5 0 12 -4 15 -10z"
       id="path2532"
       style="stroke:none" />
    <path
       d="M182 1978 c-14 -14 -16 -44 -3 -52 5 -3 11 9 14 27 6 38 4 40 -11 25z"
       id="path2534"
       style="stroke:none" />
    <path
       d="M270 1275 c-7 -9 -11 -18 -8 -20 3 -3 11 1 18 10 7 9 11 18 8 20 -3 3 -11 -1 -18 -10z"
       id="path2536"
       style="stroke:none" />
    <path
       d="M255 1100 c-3 -5 3 -10 14 -10 12 0 21 5 21 10 0 6 -6 10 -14 10 -8 0 -18 -4 -21 -10z"
       id="path2538"
       style="stroke:none" />
    <path
       d="M350 956 c0 -22 5 -36 13 -37 6 0 3 -4 -8 -9 -16 -7 -17 -9 -3 -9 22 -1 34 19 18 29 -7 4 -10 17 -7 29 3 12 1 24 -4 27 -5 3 -9 -11 -9 -30z"
       id="path2540"
       style="stroke:none" />
    <path
       d="M2592 952 c-15 -10 -5 -45 12 -39 13 4 21 47 9 47 -4 0 -14 -4 -21 -8z"
       id="path2542"
       style="stroke:none" />
    <path
       d="M795 358 c-10 -24 -2 -38 12 -23 6 7 8 18 3 26 -7 11 -10 10 -15 -3z"
       id="path2544"
       style="stroke:none" />
    <path
       d="M1050 285 c0 -8 5 -15 10 -15 6 0 10 7 10 15 0 8 -4 15 -10 15 -5 0 -10 -7 -10 -15z"
       id="path2546"
       style="stroke:none" />
    <path
       d="M1832 263 c15 -35 29 -55 36 -49 4 5 -36 76 -44 76 -2 0 2 -12 8 -27z"
       id="path2548"
       style="stroke:none" />
    <path
       d="M1520 230 c6 -11 7 -20 3 -20 -4 0 -1 -4 7 -9 8 -6 18 -7 22 -5 11 7 -8 40 -27 48 -13 4 -14 2 -5 -14z"
       id="path2550"
       style="stroke:none" />
    <path
       d="M2652 1201 c2 -7 7 -12 11 -12 12 1 9 15 -3 20 -7 2 -11 -2 -8 -8z"
       id="path2552"
       style="stroke:none" />
  </g>
  <g
     id="layer103"
     fill="#505050"
     stroke="none"
     style="stroke:none">
    <path
       d="M1050 4957 c-3 -4 -30 -9 -60 -12 -30 -3 -68 -8 -85 -11 -16 -2 -48 -6 -70 -7 -108 -7 -160 -74 -174 -223 -9 -104 7 -294 25 -294 10 0 20 -18 29 -58 2 -8 7 -21 11 -30 8 -19 10 -29 19 -89 4 -27 2 -43 -4 -43 -7 0 -9 -29 -5 -87 3 -49 1 -122 -5 -163 -6 -41 -15 -107 -20 -147 -13 -90 -87 -242 -173 -355 -30 -38 -48 -76 -147 -301 -67 -153 -91 -225 -91 -274 0 -29 -6 -37 -47 -61 -71 -41 -83 -56 -83 -105 0 -23 -18 -98 -40 -167 -45 -139 -71 -282 -63 -353 5 -44 3 -48 -31 -79 -33 -29 -36 -37 -36 -83 0 -28 7 -103 17 -166 9 -63 18 -157 20 -209 3 -89 6 -136 32 -409 17 -178 23 -211 42 -234 16 -19 20 -20 30 -7 9 13 10 12 5 -3 -4 -13 5 -22 43 -38 42 -19 51 -28 70 -74 35 -83 72 -135 98 -135 17 0 23 6 23 22 0 20 -1 21 -13 4 -12 -16 -15 -13 -35 39 -12 31 -22 68 -22 81 0 13 -3 24 -7 24 -9 0 -44 56 -54 85 -6 16 -7 17 -8 3 -1 -14 -5 -16 -26 -8 -22 8 -25 7 -25 -11 0 -11 -4 -18 -9 -15 -5 3 -11 33 -13 66 -3 42 -11 69 -28 92 -20 28 -22 36 -13 69 5 21 7 42 3 46 -3 4 -12 21 -18 37 -12 27 -12 28 10 23 l23 -6 -23 19 c-20 17 -21 20 -6 28 16 9 15 10 -4 16 -18 6 -20 11 -12 26 14 25 13 30 -6 30 -8 0 -13 3 -10 8 2 4 1 35 -3 70 -4 37 -4 62 2 62 6 0 5 5 -1 12 -5 7 -13 56 -16 108 -4 52 -11 123 -15 157 -7 59 -6 63 13 63 12 0 28 5 36 11 11 7 6 9 -20 7 -28 -2 -35 1 -34 15 1 9 -3 17 -10 17 -7 0 -7 3 2 8 10 7 10 14 -3 38 -22 42 -19 63 11 74 33 13 34 13 34 -5 0 -8 6 -15 13 -15 10 0 13 20 14 74 1 41 6 90 12 109 12 34 13 35 38 22 14 -7 34 -31 44 -52 13 -30 18 -33 18 -16 1 12 5 24 10 27 4 3 11 25 15 48 l7 42 14 -28 c8 -15 21 -75 30 -134 8 -59 22 -141 30 -182 8 -41 22 -115 31 -165 9 -49 20 -95 25 -101 5 -5 8 -50 8 -98 0 -50 4 -93 10 -99 6 -6 11 -31 11 -55 0 -24 6 -58 14 -75 8 -18 20 -50 26 -72 11 -35 108 -210 178 -320 46 -72 106 -137 164 -176 31 -22 62 -39 68 -39 17 0 80 -34 154 -84 38 -25 75 -46 82 -46 8 0 14 -4 14 -9 0 -5 19 -12 43 -16 45 -9 56 -11 60 -15 1 -1 15 -3 30 -4 15 0 32 -8 37 -16 8 -12 12 -12 18 -2 5 6 19 12 33 12 13 0 125 2 249 3 l225 3 120 39 c66 22 144 52 172 67 29 16 54 28 55 28 2 -1 15 1 30 5 29 7 154 139 181 190 8 17 35 60 59 97 61 93 82 132 79 142 -1 5 1 16 5 25 4 9 9 27 11 41 2 14 11 29 19 33 11 6 12 13 4 28 -14 26 -3 44 16 28 13 -10 13 -8 5 15 -6 14 -8 26 -4 26 4 0 -1 6 -11 13 -16 12 -16 14 -2 26 10 8 14 21 11 32 -4 11 -2 19 3 19 8 0 12 24 13 88 1 24 14 30 23 10 3 -7 3 -3 0 10 -3 13 -1 22 7 22 8 0 8 4 1 13 -21 25 -13 181 12 242 9 21 19 35 22 32 4 -4 22 14 41 39 36 47 71 57 65 19 -11 -67 -10 -77 9 -82 20 -6 26 -23 8 -23 -7 0 -9 -9 -6 -21 6 -22 -11 -69 -24 -69 -12 0 0 -51 16 -67 21 -20 19 -25 -7 -18 -21 6 -22 5 -5 -8 9 -8 17 -19 17 -26 0 -6 5 -11 10 -11 6 0 10 -9 10 -19 0 -30 19 -35 30 -9 11 23 11 23 5 -2 -2 -14 -5 -28 -5 -32 0 -4 -7 -5 -15 -2 -10 4 -15 0 -15 -13 0 -10 -6 -25 -12 -32 -10 -10 -10 -15 -2 -18 14 -5 6 -43 -8 -43 -5 0 -7 4 -3 9 11 18 -13 20 -29 2 -15 -16 -15 -20 0 -49 8 -18 12 -37 8 -43 -3 -6 -2 -14 4 -18 7 -4 8 -12 2 -21 -6 -10 -10 -4 -15 22 -5 25 -15 39 -32 47 -34 15 -38 10 -12 -17 11 -12 17 -27 14 -32 -3 -6 -1 -10 4 -10 6 0 11 -16 11 -35 0 -34 13 -47 23 -22 4 9 6 9 6 -1 1 -7 -4 -22 -9 -32 -8 -15 -6 -21 7 -29 14 -8 15 -11 3 -11 -10 0 -4 -9 15 -25 24 -20 27 -25 11 -25 -16 0 -17 -2 -5 -17 13 -15 11 -16 -13 -9 -25 6 -28 4 -28 -18 0 -13 6 -26 13 -29 8 -3 6 -10 -8 -21 -23 -18 -35 -20 -35 -6 0 6 -4 10 -10 10 -13 0 -7 -59 7 -64 9 -4 9 -11 0 -30 -6 -13 -15 -22 -19 -20 -5 3 -8 -1 -8 -8 0 -10 -2 -10 -9 1 -7 11 -10 9 -16 -9 -13 -40 -8 -93 9 -102 13 -7 13 -12 3 -22 -6 -8 -15 -12 -19 -9 -5 2 -8 -1 -8 -7 0 -6 -10 -8 -24 -4 -20 5 -24 1 -29 -25 -5 -21 -11 -29 -21 -25 -8 3 -17 1 -20 -4 -3 -5 -17 -7 -31 -4 -23 4 -25 1 -25 -32 0 -33 -2 -36 -19 -26 -25 13 -31 13 -31 0 0 -5 9 -10 19 -10 11 0 23 -4 26 -10 9 -15 25 -12 19 4 -3 8 -1 17 5 21 18 11 12 -30 -7 -53 l-19 -21 -32 33 c-20 20 -30 39 -26 46 6 9 2 9 -15 0 -21 -11 -21 -12 14 -42 20 -17 36 -37 36 -44 0 -20 -13 -17 -30 5 -7 11 -17 18 -21 16 -4 -3 -12 2 -19 10 -17 20 -32 19 -30 -3 3 -23 -10 -62 -21 -62 -5 0 -6 -7 -3 -15 4 -8 2 -15 -4 -15 -13 0 -22 -49 -10 -56 10 -6 1 -24 -13 -24 -6 0 -7 5 -3 12 5 7 3 8 -6 3 -10 -6 -10 -10 2 -19 19 -15 30 -57 18 -76 -7 -11 -10 -8 -10 15 0 21 -3 26 -9 16 -5 -7 -14 -10 -21 -6 -7 4 -29 9 -49 12 -32 3 -34 2 -18 -10 21 -17 22 -31 2 -23 -10 3 -15 -1 -15 -12 0 -13 -4 -11 -17 7 l-16 24 -8 -21 c-10 -26 -29 -29 -30 -4 0 14 -2 14 -8 -3 -5 -11 -7 -23 -4 -27 2 -4 -4 -5 -13 -1 -10 4 -15 2 -11 -3 3 -6 1 -16 -4 -24 -8 -13 -10 -13 -19 0 -9 13 -11 13 -20 0 -5 -8 -10 -30 -10 -49 0 -32 -1 -33 -18 -18 -24 22 -32 21 -32 -1 0 -9 10 -23 21 -30 15 -10 18 -17 11 -24 -6 -6 -8 -18 -5 -27 4 -13 3 -13 -5 -2 -6 8 -17 11 -26 8 -9 -4 -16 -2 -16 3 0 6 9 10 20 10 11 0 20 5 20 11 0 6 -6 9 -14 6 -8 -3 -17 1 -20 9 -6 16 -36 20 -36 4 0 -5 -8 -7 -17 -4 -15 5 -14 2 3 -13 21 -19 31 -73 13 -73 -5 0 -8 4 -4 9 3 5 1 12 -5 16 -5 3 -10 0 -11 -7 0 -7 -4 -4 -9 7 -7 18 -8 19 -15 3 -10 -26 -43 -22 -48 5 l-4 22 -8 -24 c-8 -23 -9 -23 -22 -6 -10 14 -13 15 -14 4 -1 -8 -1 -18 0 -23 1 -5 -6 -5 -15 -2 -10 4 -21 1 -26 -6 -5 -8 -8 -9 -8 -2 0 6 -10 9 -24 7 -13 -3 -27 0 -30 6 -4 6 -2 9 6 6 7 -3 27 -1 43 3 l30 9 -28 7 c-15 3 -25 11 -22 16 4 6 10 8 15 5 5 -3 11 -1 15 4 3 6 12 8 20 4 11 -3 15 2 15 18 0 18 3 20 9 10 5 -7 14 -10 20 -7 14 9 15 36 1 36 -5 0 -10 7 -10 15 0 8 -6 15 -14 15 -8 0 -16 5 -18 11 -2 5 -11 7 -22 3 -13 -5 -17 -14 -12 -34 4 -22 0 -29 -20 -38 -13 -7 -24 -16 -24 -20 0 -5 -11 -7 -25 -4 -15 2 -25 0 -25 -7 0 -7 -5 -9 -11 -5 -6 3 -14 2 -18 -4 -9 -15 -59 -2 -64 17 -3 11 -5 8 -6 -7 -1 -18 -5 -21 -25 -16 -15 3 -34 -1 -50 -12 -15 -9 -29 -14 -33 -11 -9 10 39 46 61 47 18 0 18 1 1 20 -13 15 -21 17 -31 9 -18 -14 -79 -5 -99 15 -20 20 -29 20 -49 0 -15 -14 -16 -13 -17 8 -1 23 -1 23 -9 -2 -6 -21 -8 -22 -14 -8 -8 17 -46 32 -46 17 0 -5 -4 -9 -10 -9 -5 0 -10 7 -10 15 0 8 -7 15 -15 15 -13 0 -14 -4 -1 -34 18 -43 -3 -41 -25 2 -7 15 -14 28 -15 30 -5 9 -54 -20 -54 -32 0 -12 -6 -13 -30 -4 -24 8 -30 15 -26 32 3 12 0 9 -6 -7 -7 -15 -15 -27 -18 -27 -3 0 -14 18 -24 40 -17 40 -29 49 -41 31 -9 -16 -70 -6 -73 12 -3 15 -6 16 -25 2 -12 -8 -34 -15 -49 -15 -24 0 -30 5 -34 30 -4 17 -10 30 -15 30 -5 0 -9 6 -9 13 0 7 -9 13 -21 14 -16 2 -18 -1 -9 -12 7 -8 7 -15 1 -19 -6 -4 -15 3 -21 14 -8 15 -17 19 -35 14 -18 -5 -25 -2 -25 9 0 8 -3 24 -6 34 -5 17 -5 17 9 0 19 -23 31 1 12 26 -13 18 -31 24 -20 7 3 -5 1 -10 -4 -10 -6 0 -11 7 -11 15 0 8 0 17 0 20 0 3 -8 13 -18 23 -21 22 -51 25 -59 6 -4 -12 -9 -10 -24 7 -24 28 -24 36 1 44 11 3 20 13 20 21 0 17 -12 18 -28 2 -9 -9 -12 -9 -12 3 0 8 -9 21 -19 29 -11 7 -18 17 -16 21 3 3 -7 19 -20 33 -29 32 -32 51 -7 65 9 6 11 11 5 11 -7 0 -13 5 -13 11 0 5 5 7 12 3 7 -5 8 -3 3 6 -6 10 -12 8 -27 -9 -10 -13 -18 -18 -18 -12 0 6 -6 11 -14 11 -21 0 6 -65 56 -130 38 -51 40 -55 33 -106 -6 -51 -5 -56 23 -81 16 -16 42 -47 56 -70 15 -22 40 -47 56 -53 16 -7 41 -27 55 -46 14 -19 31 -34 38 -34 7 0 31 -22 54 -49 39 -45 51 -52 144 -82 99 -32 102 -32 187 -20 48 6 106 14 130 17 24 4 79 -1 127 -11 47 -9 98 -14 114 -10 20 4 42 0 70 -14 47 -24 76 -26 111 -6 34 20 182 19 235 -1 22 -8 51 -19 65 -23 59 -18 150 40 150 97 0 40 6 42 63 29 60 -13 93 0 113 49 9 20 28 43 46 52 17 9 50 33 72 53 23 20 60 46 83 57 22 12 50 32 60 46 11 13 33 32 50 43 17 10 63 55 102 101 54 62 71 90 71 112 0 19 8 37 21 48 12 9 29 35 39 57 20 45 49 76 100 108 21 14 37 34 42 52 17 75 30 206 24 265 -3 36 -5 72 -5 80 1 166 8 403 12 406 9 9 -14 78 -33 99 -15 18 -17 40 -15 190 1 94 3 177 4 185 1 8 0 26 -3 40 -5 20 -5 21 2 5 6 -13 9 7 9 63 0 45 -3 78 -6 73 -3 -5 -7 14 -7 42 -2 79 -44 250 -88 356 -13 31 -26 68 -30 83 -9 39 -69 80 -135 93 l-56 12 -16 69 c-20 82 -28 104 -40 104 -7 0 -29 62 -34 100 -3 21 -14 50 -30 81 -8 14 -16 43 -19 65 -2 21 -5 39 -6 39 -1 0 -3 7 -5 15 -2 8 -17 56 -34 106 -39 116 -39 153 -1 229 48 94 53 101 119 166 34 33 60 66 58 72 -2 7 -30 15 -63 19 -131 15 -181 31 -313 99 -70 37 -110 68 -236 189 -83 80 -166 159 -185 175 -102 88 -148 125 -156 125 -5 0 -22 14 -37 29 -35 36 -90 64 -96 49 -2 -5 2 -14 9 -18 7 -4 10 -13 6 -18 -6 -10 3 -25 39 -66 6 -6 17 -24 25 -41 19 -38 42 -61 69 -70 12 -3 21 -13 21 -21 0 -8 5 -14 10 -14 6 0 10 -4 10 -9 0 -4 -12 -6 -26 -3 -24 4 -25 3 -15 -17 12 -21 31 -29 31 -12 0 5 9 7 21 4 36 -10 52 -94 21 -118 -17 -14 10 -46 56 -64 36 -15 42 -31 12 -31 -20 0 -19 -1 5 -27 14 -15 25 -38 25 -50 0 -13 19 -38 51 -66 l50 -44 -17 -39 c-10 -21 -20 -43 -22 -48 -3 -5 3 -6 12 -3 11 5 16 1 16 -14 0 -16 -3 -18 -19 -10 -14 8 -22 7 -31 -4 -7 -8 -21 -15 -30 -15 -10 0 -21 -6 -24 -12 -3 -7 -4 -4 -3 7 1 12 -5 21 -17 23 -14 3 -17 0 -13 -12 5 -14 1 -15 -32 -10 -24 4 -41 2 -45 -5 -4 -6 -15 -11 -25 -11 -11 0 -21 -9 -24 -22 -5 -17 -9 -19 -20 -10 -17 15 -58 12 -72 -5 -16 -19 -92 -42 -103 -31 -6 6 -12 6 -16 -1 -4 -6 -18 -11 -31 -11 -13 0 -28 -7 -33 -16 -6 -12 -18 -15 -36 -12 -15 3 -29 1 -32 -3 -13 -22 -63 -39 -88 -29 -21 8 -53 10 -155 10 -13 0 -44 -7 -68 -15 -41 -14 -48 -14 -69 0 -13 8 -24 21 -24 27 0 7 -7 3 -15 -8 -8 -10 -15 -15 -15 -11 0 11 -95 -57 -136 -97 -17 -17 -44 -40 -59 -50 -22 -17 -26 -25 -21 -52 4 -21 0 -44 -13 -70 -58 -116 -91 -191 -91 -206 0 -9 -5 -20 -10 -23 -6 -4 -19 -24 -30 -46 -23 -44 -60 -55 -60 -18 0 18 -3 19 -15 9 -25 -21 -36 -7 -20 24 8 15 15 37 15 47 0 10 4 20 9 23 5 3 11 16 15 29 9 36 149 281 176 307 3 3 16 22 30 42 14 21 28 38 33 38 4 0 7 5 7 11 0 6 6 16 13 24 28 30 45 54 51 73 4 11 13 26 21 32 8 7 15 17 15 23 0 6 -7 2 -15 -9 -13 -17 -14 -11 -9 66 3 47 13 101 21 120 11 23 16 65 16 127 1 71 4 93 14 93 21 0 0 33 -31 49 -24 13 -24 15 -8 27 12 10 13 13 3 14 -11 0 -11 3 -1 15 9 10 9 15 1 15 -14 0 -14 34 0 63 9 20 8 20 -11 -2 l-21 -25 5 30 c2 16 5 42 5 57 1 20 7 30 21 34 22 6 25 19 10 59 -13 34 3 74 40 99 15 10 35 38 45 62 10 23 24 43 32 43 7 0 13 5 13 11 0 5 5 7 11 4 5 -4 18 0 29 10 10 9 28 17 41 19 33 4 79 27 74 36 -3 5 2 10 10 14 8 3 15 1 15 -4 0 -5 7 -7 16 -3 9 3 21 -3 30 -16 8 -11 24 -21 34 -21 10 0 22 -5 26 -11 3 -6 27 -20 52 -30 26 -11 49 -25 53 -30 3 -6 28 -13 54 -15 26 -3 52 -7 57 -10 4 -3 8 0 8 6 0 7 -9 14 -21 17 -12 3 -18 11 -15 19 3 8 2 14 -2 14 -10 0 -42 54 -42 70 0 6 5 8 11 4 8 -5 8 -1 0 12 -22 39 -50 64 -111 100 -52 30 -74 37 -138 41 -43 3 -79 3 -82 0z m-280 -1183 c0 -19 -4 -33 -8 -30 -8 5 -4 66 4 66 2 0 4 -16 4 -36z m626 -355 c6 -5 32 -12 57 -15 42 -6 45 -9 43 -33 -3 -29 21 -23 -266 -61 -47 -7 -112 -18 -146 -26 -76 -18 -87 -18 -81 0 3 8 -2 17 -11 21 -10 4 -12 9 -6 13 6 4 13 15 17 25 4 9 15 20 24 24 10 3 25 11 33 18 17 13 117 35 162 35 15 0 28 5 28 11 0 12 128 2 146 -12z m-217 -173 c-8 -8 -104 -18 -96 -10 4 4 26 10 50 14 40 6 55 5 46 -4z m635 -136 c30 -19 55 -29 67 -25 21 7 70 -15 114 -50 l29 -24 -28 -30 c-28 -29 -125 -71 -165 -71 -14 0 -21 6 -21 18 0 13 7 18 23 18 18 -1 22 5 25 36 4 47 -13 82 -36 73 -9 -4 -22 -9 -29 -12 -14 -5 -38 30 -47 70 -8 36 7 35 68 -3z m-401 0 c-5 -20 -33 -29 -33 -10 0 16 -31 12 -44 -5 -10 -14 -14 -13 -36 2 l-24 17 24 7 c14 4 46 7 72 8 41 1 46 -1 41 -19z m-367 -8 c12 -7 7 -72 -5 -72 -7 0 -5 -65 3 -86 5 -13 152 -18 160 -5 3 4 38 6 77 4 41 -2 75 1 79 7 4 6 20 5 45 -2 26 -7 34 -13 23 -16 -10 -2 -18 -7 -18 -12 0 -5 8 -11 18 -13 16 -4 -28 -11 -54 -8 -6 1 -19 -8 -29 -19 -19 -21 -50 -26 -60 -10 -4 6 -12 4 -22 -6 -9 -9 -30 -15 -52 -14 -20 1 -62 2 -94 1 -50 -1 -60 -4 -64 -21 -3 -11 -7 -20 -9 -20 -15 0 -138 33 -166 44 -35 15 -101 17 -114 3 -18 -17 -4 -132 22 -184 16 -34 23 -61 19 -75 -5 -18 -4 -19 4 -8 9 13 11 13 15 0 3 -8 11 -28 17 -45 7 -16 12 -33 11 -37 -1 -5 2 -8 7 -8 5 0 12 -15 16 -32 4 -18 9 -41 11 -50 9 -31 -16 -20 -64 27 -25 25 -49 45 -53 45 -5 0 -6 7 -2 15 3 9 2 15 -3 14 -5 -2 -26 5 -46 14 -33 14 -77 15 -98 2 -4 -2 -20 4 -37 15 -17 10 -40 16 -51 13 -11 -2 -23 0 -26 6 -4 6 -16 11 -27 11 -19 0 -24 18 -20 68 2 29 41 74 58 67 8 -3 18 6 23 20 5 14 20 30 34 36 13 6 29 23 36 37 13 30 24 141 21 230 -2 60 -1 63 19 52 11 -6 20 -15 20 -20 0 -6 10 -10 23 -10 12 0 28 -9 34 -19 7 -11 23 -21 35 -23 27 -5 109 25 148 52 42 30 114 47 136 32z m186 -22 c-21 -36 -25 -37 -45 -6 -19 29 -14 36 29 36 l33 0 -17 -30z m-106 -13 c1 -9 -2 -17 -7 -17 -5 0 -9 -7 -9 -16 0 -8 -5 -12 -10 -9 -8 5 -8 11 0 20 8 10 8 14 -1 17 -7 2 -9 10 -5 17 10 16 29 9 32 -12z m19 -453 c11 -2 35 0 53 6 39 10 74 -1 111 -37 13 -13 29 -23 35 -22 28 3 56 -2 56 -10 0 -5 -10 -13 -22 -17 -24 -7 -104 -74 -101 -85 1 -3 -8 -5 -20 -5 -13 1 -26 -7 -32 -21 -5 -12 -17 -22 -27 -22 -10 -1 -27 -1 -38 -2 -11 0 -32 7 -47 15 -16 9 -36 18 -45 22 -10 3 -18 10 -18 16 0 5 -5 15 -12 22 -10 10 -16 9 -30 -8 -10 -12 -17 -15 -18 -8 0 6 5 12 10 12 6 0 10 11 10 24 0 14 5 28 10 31 6 3 10 16 10 27 0 29 57 82 78 73 9 -4 26 -9 37 -11z m518 -81 c4 -3 3 -11 -2 -17 -5 -6 -11 -22 -13 -35 -7 -51 -124 -79 -165 -39 -12 12 -10 16 12 28 14 7 25 17 25 22 0 4 8 8 18 8 11 0 27 9 37 20 17 19 74 28 88 13z m1113 -550 c-4 -4 -12 -1 -17 7 -9 13 -10 12 -6 -2 3 -9 -2 -23 -12 -32 -29 -26 -32 -18 -9 25 19 37 22 39 36 25 9 -9 12 -19 8 -23z m-80 -27 c-9 -38 -66 -110 -78 -98 -8 8 -1 23 21 51 18 23 37 41 42 41 5 0 9 12 10 28 0 15 3 21 6 14 3 -7 2 -23 -1 -36z m-637 18 c2 -2 2 -6 0 -8 -6 -5 -210 -14 -204 -8 21 22 183 34 204 16z m-1161 -17 c44 -13 48 -31 4 -20 -16 4 -23 2 -18 -5 3 -6 -1 -9 -11 -6 -16 3 -94 11 -130 13 -29 2 -10 20 25 24 72 7 87 7 130 -6z m-263 -103 c49 4 110 9 133 12 30 3 42 2 37 -5 -4 -7 6 -11 27 -11 176 -3 256 -7 273 -17 11 -6 32 -16 47 -21 41 -17 61 -65 63 -152 2 -56 -3 -85 -16 -112 -11 -21 -19 -44 -19 -53 0 -8 -7 -15 -15 -15 -8 0 -19 -9 -25 -20 -7 -13 -21 -20 -40 -20 -17 0 -30 -4 -30 -10 0 -15 -68 -43 -90 -37 -11 3 -20 1 -20 -4 0 -13 -109 1 -145 19 -16 8 -47 32 -67 54 -36 38 -48 55 -29 44 7 -5 45 5 96 25 11 4 31 11 45 15 56 16 130 78 130 109 0 6 -25 9 -66 7 -136 -7 -278 38 -361 114 -23 22 -47 51 -52 66 -8 20 -19 29 -48 34 l-38 8 30 6 c23 5 37 0 60 -18 28 -23 34 -24 120 -18z m1440 -8 c34 -8 66 -9 102 -3 28 5 60 7 69 3 57 -22 -131 -85 -272 -90 -144 -6 -169 -21 -89 -51 34 -13 65 -16 128 -13 107 5 177 39 259 122 32 33 60 57 63 54 14 -14 -129 -139 -193 -169 -62 -30 -75 -32 -172 -33 -58 0 -115 2 -127 6 -18 5 -27 0 -43 -22 -24 -34 -26 -50 -4 -50 8 0 13 -4 9 -9 -8 -14 12 -23 51 -23 27 0 34 -4 34 -19 0 -10 5 -19 10 -19 6 0 10 8 10 18 1 16 1 16 11 0 7 -12 22 -18 49 -18 22 0 40 -4 40 -10 0 -5 11 -10 24 -10 14 0 28 -5 32 -11 3 -6 -1 -10 -12 -9 -32 4 -40 0 -24 -10 12 -8 11 -10 -7 -10 -13 0 -24 -8 -28 -20 -4 -14 -23 -24 -58 -34 -118 -31 -192 -16 -237 49 -33 48 -38 75 -15 75 8 0 15 7 15 16 0 8 4 13 9 9 5 -3 12 4 16 15 3 11 13 20 21 20 8 0 14 5 14 11 0 5 -4 7 -10 4 -5 -3 -10 1 -10 9 0 9 -6 13 -14 10 -11 -4 -13 0 -9 15 5 21 -36 72 -66 82 -13 5 -15 27 -9 85 1 10 8 14 20 11 13 -4 18 0 18 13 0 12 9 20 23 22 49 7 325 -4 372 -16z m-1571 -102 c21 -21 20 -29 -4 -31 -15 -1 -20 4 -20 23 0 28 3 29 24 8z m2278 -56 c-9 -9 -12 -7 -12 12 0 19 3 21 12 12 9 -9 9 -15 0 -24z m-20 -340 c-6 -6 -12 -6 -16 1 -4 6 -2 11 3 11 6 0 12 8 12 18 1 15 2 15 6 -2 3 -10 0 -23 -5 -28z m-2625 -305 c-3 -10 -5 -2 -5 17 0 19 2 27 5 18 2 -10 2 -26 0 -35z m2538 -164 c6 -19 0 -38 -9 -28 -10 12 -16 49 -7 49 5 0 13 -9 16 -21z m-1433 -704 c0 -5 -5 -11 -10 -13 -5 -1 -9 4 -9 13 0 9 4 14 9 13 5 -2 10 -8 10 -13z m78 -15 c0 -13 -11 -13 -30 0 -12 8 -11 10 8 10 12 0 22 -4 22 -10z m70 -35 c0 -9 -10 -15 -22 -16 -18 -1 -19 -2 -5 -6 9 -2 15 -8 12 -13 -6 -10 -64 7 -82 24 -10 9 -2 11 32 11 25 0 45 3 45 8 0 4 5 7 10 7 6 0 10 -7 10 -15z"
       id="path2555"
       style="stroke:none" />
    <path
       d="M945 1821 c-3 -5 2 -11 10 -15 8 -3 17 -1 20 3 3 5 -2 11 -10 15 -8 3 -17 1 -20 -3z"
       id="path2557"
       style="stroke:none" />
    <path
       d="M610 1790 c0 -13 66 -60 116 -81 27 -12 74 -22 116 -24 65 -3 72 -1 97 23 l26 27 -116 7 c-89 5 -130 12 -178 32 -33 13 -61 21 -61 16z"
       id="path2559"
       style="stroke:none" />
    <path
       d="M1843 1835 c-16 -18 5 -39 24 -24 7 7 13 15 13 19 0 14 -25 18 -37 5z"
       id="path2561"
       style="stroke:none" />
    <path
       d="M2062 1818 c3 -7 15 -14 29 -16 23 -2 23 -2 5 13 -24 18 -39 20 -34 3z"
       id="path2563"
       style="stroke:none" />
    <path
       d="M608 3462 c-7 -18 -16 -32 -19 -32 -10 0 -63 -89 -77 -127 -14 -43 -9 -42 19 5 13 20 28 40 35 44 6 4 15 20 19 35 3 16 14 36 22 46 9 9 13 17 8 17 -4 0 -2 7 5 15 7 9 10 18 6 22 -3 4 -12 -8 -18 -25z"
       id="path2565"
       style="stroke:none" />
    <path
       d="M83 1665 c0 -27 2 -38 4 -22 2 15 2 37 0 50 -2 12 -4 0 -4 -28z"
       id="path2567"
       style="stroke:none" />
    <path
       d="M2670 1677 c-8 -12 -15 -35 -16 -51 -1 -20 1 -24 7 -15 6 10 9 6 9 -13 0 -28 -13 -37 -25 -18 -7 12 -25 4 -25 -11 0 -5 11 -9 24 -9 13 0 27 -6 29 -12 4 -10 6 -10 6 0 1 7 6 10 12 6 8 -5 8 -1 0 14 -15 28 -14 109 1 114 7 3 8 7 2 11 -5 3 -16 -4 -24 -16z"
       id="path2569"
       style="stroke:none" />
    <path
       d="M2697 1464 c-6 -10 9 -42 16 -34 3 3 1 14 -3 24 -3 11 -9 15 -13 10z"
       id="path2571"
       style="stroke:none" />
    <path
       d="M2663 1433 c-9 -3 -9 -10 -1 -29 14 -31 23 -31 26 1 2 26 -6 35 -25 28z"
       id="path2573"
       style="stroke:none" />
    <path
       d="M2637 1294 c-4 -4 -7 -17 -7 -28 1 -19 1 -20 11 -3 11 19 8 43 -4 31z"
       id="path2575"
       style="stroke:none" />
    <path
       d="M270 1068 c0 -7 5 -20 10 -28 8 -12 10 -11 10 7 0 12 -4 25 -10 28 -5 3 -10 0 -10 -7z"
       id="path2577"
       style="stroke:none" />
    <path
       d="M1350 253 c1 -16 39 -57 47 -50 4 5 3 11 -3 15 -6 4 -13 15 -17 25 -6 17 -27 24 -27 10z"
       id="path2579"
       style="stroke:none" />
    <path
       d="M1782 248 c2 -6 10 -14 16 -16 7 -2 10 2 6 12 -7 18 -28 22 -22 4z"
       id="path2581"
       style="stroke:none" />
  </g>
  <g
     id="layer104"
     fill="#717171"
     stroke="none"
     style="stroke:none">
    <path
       d="M975 4934 c-49 -8 -110 -13 -135 -12 -65 3 -122 -30 -149 -85 -30 -61 -41 -204 -26 -332 l11 -100 18 37 c11 23 17 52 14 72 -2 19 0 32 4 30 4 -3 8 -1 8 5 0 5 -4 13 -10 16 -5 3 -10 14 -9 23 0 15 1 14 8 -2 6 -15 9 -11 19 22 7 22 18 42 26 45 7 3 17 22 20 41 4 20 11 34 16 31 4 -3 21 8 37 25 15 16 34 30 40 30 7 0 13 4 13 8 0 8 62 27 124 37 22 4 51 15 64 26 14 10 30 19 37 19 7 0 15 7 19 15 3 8 25 23 48 32 41 16 42 17 18 24 -38 11 -116 8 -215 -7z"
       id="path2584"
       style="stroke:none" />
    <path
       d="M1617 4542 c2 -10 16 -26 31 -36 16 -10 28 -28 28 -42 2 -32 28 -60 62 -69 25 -6 62 -40 62 -57 0 -4 8 -8 18 -8 10 0 21 -3 25 -6 9 -10 -4 -34 -19 -34 -12 0 -11 -5 3 -27 19 -28 26 -56 13 -48 -5 3 -11 1 -15 -5 -3 -5 -2 -10 4 -10 6 0 8 -6 5 -14 -3 -7 6 -20 19 -29 40 -26 92 -77 79 -77 -6 0 -12 5 -12 10 0 6 -11 10 -26 10 -23 0 -25 -3 -20 -32 2 -18 5 -35 5 -37 1 -2 8 2 16 9 13 10 15 9 15 -9 0 -11 5 -21 11 -21 6 0 9 -6 6 -13 -3 -8 9 -21 29 -32 31 -17 36 -22 33 -42 0 -3 6 -10 15 -15 17 -10 22 -38 6 -38 -5 0 -13 -12 -16 -26 -4 -15 -12 -23 -19 -20 -7 2 -15 -4 -18 -14 -3 -11 -13 -18 -28 -17 -13 0 -42 -3 -64 -8 -35 -7 -38 -6 -28 7 7 8 10 18 6 21 -3 4 -12 -1 -19 -11 -9 -13 -27 -19 -61 -21 -26 -1 -49 -6 -51 -11 -2 -6 -17 -10 -33 -10 -18 0 -27 -4 -24 -12 4 -10 -9 -13 -45 -12 -35 0 -50 -3 -50 -13 0 -16 -5 -16 -30 -3 -14 7 -19 5 -23 -10 -3 -11 0 -23 5 -26 6 -4 3 -11 -7 -17 -13 -7 -21 -6 -29 4 -6 8 -21 13 -33 11 -26 -4 -32 -22 -7 -22 8 0 13 -4 9 -9 -3 -5 -19 -9 -35 -9 -16 1 -36 -5 -45 -12 -14 -11 -17 -10 -22 8 -6 26 -11 27 -43 5 -32 -23 -80 -28 -80 -8 0 8 -4 15 -10 15 -5 0 -10 -5 -10 -11 0 -5 -5 -7 -11 -4 -19 12 -64 13 -71 1 -5 -7 -8 -4 -8 8 0 16 -2 16 -16 5 -13 -10 -17 -10 -24 2 -8 11 -13 12 -30 2 -11 -7 -28 -13 -38 -13 -10 0 -22 -4 -28 -9 -18 -17 -64 -22 -70 -8 -7 20 -40 14 -67 -11 -13 -12 -27 -22 -31 -22 -26 0 -89 -89 -145 -205 -34 -72 -67 -138 -72 -147 -5 -10 -9 -31 -9 -48 0 -18 -6 -33 -15 -36 -8 -4 -15 -15 -15 -25 0 -10 -4 -19 -8 -19 -5 0 -18 -18 -30 -39 -22 -39 -52 -61 -52 -38 0 9 -2 9 -8 0 -5 -7 -21 -14 -38 -15 -16 -1 -32 -7 -36 -13 -31 -43 21 109 80 235 50 106 216 371 246 391 5 4 6 15 2 25 -4 10 -4 15 0 11 4 -4 13 -2 21 4 15 13 18 33 3 24 -5 -3 -10 -2 -10 3 0 18 24 77 33 84 6 4 10 49 10 109 -1 57 2 97 6 90 11 -17 2 122 -10 172 -17 67 -29 41 -23 -50 3 -49 1 -122 -5 -163 -6 -41 -15 -107 -20 -147 -13 -91 -77 -221 -184 -371 -25 -36 -69 -130 -168 -361 -23 -52 -45 -119 -51 -150 -6 -31 -12 -65 -14 -76 -2 -12 -21 -28 -45 -39 -62 -28 -79 -49 -79 -99 0 -23 -18 -98 -40 -167 -45 -139 -71 -282 -63 -353 5 -44 3 -48 -31 -79 -33 -29 -36 -37 -36 -83 0 -28 7 -103 17 -166 9 -63 18 -157 20 -209 3 -87 13 -217 28 -360 3 -30 10 -100 16 -155 6 -62 17 -110 27 -125 17 -25 17 -24 22 45 3 39 1 73 -3 76 -4 3 -10 26 -12 50 -2 24 -7 71 -11 104 -4 33 -7 74 -8 92 0 17 -4 29 -7 27 -3 -2 -9 50 -13 116 -4 66 -13 177 -22 247 -8 71 -17 153 -21 183 -3 30 -9 65 -14 77 -7 18 -3 28 19 48 15 14 34 24 43 22 14 -4 17 8 21 79 2 47 9 89 16 96 6 6 27 12 46 13 20 1 38 4 41 6 5 5 19 67 37 156 6 34 15 60 18 58 4 -3 10 -61 14 -129 4 -69 16 -181 26 -248 27 -167 68 -390 77 -408 3 -8 10 -51 14 -95 5 -44 11 -91 14 -105 3 -14 9 -52 14 -85 15 -109 47 -183 159 -372 83 -141 166 -236 220 -254 20 -7 54 -25 76 -40 21 -16 43 -29 47 -29 5 0 34 -17 65 -37 78 -52 75 -50 114 -67 102 -42 152 -51 280 -48 58 2 164 3 237 3 73 0 151 3 175 8 74 16 189 51 227 70 113 58 142 70 156 65 8 -3 15 -1 15 5 0 6 7 11 15 11 8 0 14 5 12 12 -1 7 3 12 8 13 45 2 256 317 268 400 1 11 6 25 10 31 3 6 7 34 8 63 1 29 7 51 13 51 7 0 7 3 1 8 -12 8 -13 47 -3 58 5 4 8 24 8 45 0 25 6 41 17 47 12 7 16 23 15 57 0 28 3 43 8 35 4 -7 13 -9 19 -5 9 5 9 10 0 21 -15 18 -18 94 -4 113 7 10 6 15 -2 18 -9 3 -9 12 -2 29 5 14 9 47 9 73 0 34 6 53 20 69 12 12 18 22 15 22 -2 0 9 13 25 29 17 15 30 32 30 38 0 5 7 18 15 29 14 18 14 16 8 -16 -3 -19 -10 -43 -15 -52 -5 -10 -6 -18 -3 -18 11 0 34 27 29 33 -3 3 5 24 18 46 19 31 27 38 36 29 17 -17 15 -35 -4 -42 -8 -3 -12 -10 -9 -16 3 -5 -1 -10 -9 -10 -9 0 -16 -5 -16 -10 0 -6 6 -9 13 -8 13 3 13 -2 3 -42 l-7 -25 20 24 c21 23 21 23 21 2 0 -13 4 -19 11 -16 6 4 10 1 8 -6 -3 -29 1 -50 11 -44 11 7 13 -6 4 -29 -3 -9 -10 -13 -15 -10 -5 3 -7 10 -4 15 3 5 -1 6 -9 3 -9 -3 -15 -9 -14 -12 1 -4 -3 -16 -7 -26 -6 -13 -4 -21 4 -24 8 -3 4 -9 -11 -16 -26 -13 -30 -32 -10 -63 7 -12 12 -27 11 -35 -3 -27 1 -48 11 -48 6 0 10 9 10 20 0 12 7 20 18 20 15 0 15 -2 2 -11 -11 -8 -12 -12 -2 -16 17 -7 15 -64 -4 -91 -18 -26 -31 -112 -16 -112 6 0 6 -16 2 -42 -5 -25 -4 -52 3 -67 15 -37 16 -51 6 -51 -5 0 -9 6 -9 13 0 6 -5 4 -11 -6 -13 -23 -7 -99 8 -104 8 -3 10 7 6 34 l-6 38 23 -24 c18 -19 20 -25 9 -32 -10 -6 -10 -9 -1 -9 6 0 12 -11 12 -25 0 -17 -4 -23 -14 -19 -8 3 -23 -4 -33 -15 -16 -20 -18 -20 -25 -4 -4 11 -7 -1 -7 -29 -1 -46 -13 -62 -25 -35 -3 6 -4 -1 -2 -18 4 -26 3 -27 -9 -12 -18 25 -20 22 -21 -28 -1 -37 2 -43 13 -34 18 15 17 -1 -2 -47 -12 -30 -17 -34 -33 -25 -24 13 -36 3 -21 -16 9 -10 7 -13 -7 -14 -16 0 -16 -2 4 -11 23 -12 31 -40 10 -35 -8 1 -12 -6 -10 -18 3 -16 1 -17 -9 -8 -10 10 -16 8 -28 -6 -9 -10 -23 -20 -31 -24 -9 -3 -4 -6 13 -6 20 -1 27 -6 27 -21 0 -21 -15 -27 -25 -10 -12 19 -26 11 -15 -9 17 -34 10 -37 -14 -7 -30 37 -66 30 -61 -12 1 -15 -3 -41 -10 -59 -11 -25 -11 -38 -2 -57 7 -14 15 -26 20 -26 4 0 7 -8 7 -17 0 -12 -10 -6 -36 20 -20 20 -40 34 -44 32 -4 -2 -16 5 -28 15 -12 11 -24 20 -28 20 -4 0 -13 8 -21 17 -12 16 -13 13 -7 -22 4 -30 3 -36 -5 -25 -9 12 -11 11 -11 -7 0 -12 4 -23 10 -25 6 -2 6 -14 1 -33 -5 -16 -10 -22 -10 -12 -1 9 -6 17 -12 17 -7 0 -9 -8 -4 -22 4 -13 7 -30 8 -39 1 -9 7 -15 14 -12 7 3 13 -2 13 -10 0 -8 -7 -18 -16 -21 -10 -4 -13 -2 -8 6 4 7 3 8 -4 4 -7 -4 -12 -23 -12 -42 0 -40 -14 -43 -47 -12 -13 12 -23 17 -23 11 0 -6 -9 -9 -20 -6 -22 6 -26 -7 -8 -25 6 -6 9 -15 5 -18 -4 -4 -15 4 -26 17 l-20 24 -1 -22 c0 -13 -4 -23 -10 -23 -5 0 -10 7 -10 15 0 8 -4 15 -10 15 -5 0 -10 -7 -10 -15 0 -9 -6 -12 -16 -8 -11 4 -15 1 -12 -13 2 -12 -3 -19 -13 -19 -9 0 -24 -6 -33 -14 -10 -9 -16 -10 -16 -2 0 6 -5 11 -11 11 -8 0 -9 -14 -5 -43 5 -33 3 -47 -9 -57 -8 -7 -15 -18 -15 -26 0 -7 -16 -29 -35 -49 -35 -34 -53 -45 -40 -25 3 5 1 10 -6 10 -6 0 -21 10 -32 23 -13 14 -18 16 -14 5 6 -17 -13 -20 -149 -22 -50 -1 -84 17 -84 43 0 12 -14 14 -58 5 -19 -4 -29 -11 -26 -19 4 -10 14 -11 37 -4 40 11 37 12 37 -7 0 -12 -7 -15 -26 -11 -29 5 -89 -15 -77 -26 3 -4 16 -7 27 -8 17 0 16 -3 -9 -14 l-30 -13 29 -8 c19 -4 41 -2 60 6 49 22 194 24 246 5 25 -9 56 -20 70 -24 59 -18 150 40 150 97 0 40 6 42 63 29 60 -13 93 0 113 49 9 20 28 43 46 52 17 9 50 33 72 53 23 20 60 46 83 57 22 12 50 32 60 46 11 13 33 32 50 43 17 10 63 55 102 101 54 62 71 90 71 112 0 19 8 37 21 48 12 9 29 35 39 57 20 45 49 76 100 108 21 14 37 34 42 52 17 75 30 206 24 265 -3 36 -5 72 -5 80 1 166 8 403 12 406 9 9 -14 78 -33 99 -15 18 -17 40 -16 190 1 94 4 182 8 197 3 15 1 25 -4 22 -5 -3 -6 15 -2 43 3 28 1 67 -6 93 -7 25 -14 79 -15 120 -2 41 -4 75 -5 75 -2 0 -2 0 -24 91 -19 78 -67 195 -77 188 -11 -6 -22 33 -13 47 4 8 3 9 -4 5 -7 -4 -12 -1 -12 7 0 8 -14 17 -31 21 -19 3 -28 10 -23 17 4 8 0 9 -15 4 -11 -3 -21 -3 -21 2 0 5 -12 10 -26 11 -33 3 -57 21 -50 38 3 7 1 16 -4 19 -5 3 -6 13 -3 22 4 11 3 14 -6 9 -8 -5 -10 1 -6 22 4 22 -1 36 -20 56 -14 15 -25 33 -25 39 0 7 -11 46 -25 87 -29 86 -56 176 -60 205 -2 11 -15 58 -30 105 -18 57 -25 100 -22 131 4 45 54 159 70 159 4 0 6 4 2 9 -5 10 72 91 86 91 14 0 51 62 43 70 -5 4 -45 10 -89 13 -85 5 -177 37 -292 99 -88 47 -117 71 -257 210 -90 90 -134 127 -145 123 -8 -3 -12 -3 -8 1 10 11 -13 34 -34 34 -12 0 -16 5 -13 15 4 10 0 15 -10 15 -9 0 -19 7 -22 15 -4 8 -12 15 -20 15 -8 0 -28 14 -46 30 -35 34 -48 38 -41 12z m-192 -1099 c11 -4 35 -5 53 -4 17 1 32 -2 32 -7 0 -5 11 -14 24 -21 32 -18 30 -57 -4 -70 -14 -6 -106 -19 -205 -31 -99 -11 -215 -29 -259 -40 -96 -24 -96 -24 -96 -1 0 11 -9 21 -21 24 -24 7 -21 26 6 41 11 6 44 27 75 47 30 20 66 39 80 42 14 3 52 12 85 20 58 14 184 14 230 0z m-208 -180 c-15 -2 -25 -8 -22 -13 3 -4 -12 -11 -33 -15 -21 -3 -56 -12 -78 -20 -40 -14 -54 -12 -54 7 0 6 3 8 7 5 3 -4 13 -2 20 5 16 13 123 36 163 36 23 -1 23 -1 -3 -5z m873 -95 c0 -35 7 -96 15 -137 18 -86 14 -112 -9 -58 -20 45 -39 47 -72 7 -15 -17 -43 -34 -67 -41 -23 -6 -56 -17 -73 -24 -50 -21 -104 -29 -104 -15 0 7 -12 9 -35 6 -20 -4 -35 -2 -35 4 0 10 18 14 58 10 12 -1 25 6 28 14 3 9 17 16 29 16 28 0 39 27 30 70 -8 37 -19 44 -44 28 -18 -11 -24 -10 -40 7 -11 11 -23 37 -27 58 l-6 38 38 -16 c22 -9 49 -23 62 -31 17 -11 27 -12 36 -5 10 8 21 7 41 -3 15 -8 34 -12 41 -9 8 3 14 -1 14 -8 0 -10 3 -10 12 -1 7 7 17 8 29 2 22 -12 31 0 35 49 6 71 15 101 29 101 12 0 15 -14 15 -62z m-1429 -39 c7 -20 25 -37 45 -45 18 -8 39 -22 46 -32 29 -40 54 -35 183 36 22 12 57 17 130 18 55 0 138 6 185 12 47 7 106 12 132 12 45 0 47 -1 39 -22 -7 -20 -16 -23 -62 -25 -29 -1 -59 2 -65 8 -18 15 -49 3 -63 -24 -10 -18 -19 -22 -42 -19 -16 2 -39 2 -52 -2 -26 -6 -56 -58 -38 -64 6 -2 11 -12 11 -23 0 -14 7 -19 29 -19 40 0 61 9 61 28 0 13 2 13 18 -1 24 -22 124 -23 142 -2 11 13 14 13 27 0 8 -8 23 -15 32 -15 10 0 35 -7 55 -15 20 -9 41 -13 46 -10 5 3 11 1 15 -5 4 -6 10 -8 14 -6 4 3 21 1 37 -4 23 -7 25 -8 7 -9 -12 -1 -23 -5 -25 -11 -1 -5 -14 -11 -28 -12 -14 -2 -28 -7 -32 -13 -4 -5 -15 -2 -26 8 -18 16 -20 16 -37 -3 -16 -17 -32 -20 -124 -21 -58 -1 -96 -4 -83 -6 30 -6 28 -23 -3 -23 -14 0 -25 -4 -25 -10 0 -6 -38 -10 -94 -10 -74 0 -108 5 -167 26 -118 41 -123 41 -149 3 -13 -18 -24 -46 -23 -63 0 -35 58 -203 78 -226 7 -8 23 -44 36 -80 35 -101 10 -154 -46 -97 -32 32 -64 57 -75 57 -5 0 -15 8 -22 19 -21 29 -68 48 -137 54 -35 3 -67 9 -70 14 -3 4 -15 9 -26 10 -90 9 -143 39 -129 73 3 8 12 35 18 59 7 24 18 45 26 46 8 2 40 27 72 56 60 58 108 144 108 195 0 17 5 35 12 42 9 9 8 16 -4 29 -30 36 -17 143 18 143 6 0 17 -14 25 -31z m989 -209 c8 -5 11 -12 7 -16 -4 -4 -15 0 -24 9 -18 18 -8 23 17 7z m495 -79 c-1 -8 -7 -17 -13 -19 -8 -2 -12 10 -12 34 0 35 1 36 14 19 7 -10 13 -26 11 -34z m-19 -114 c1 -18 5 -42 9 -53 5 -17 -4 -33 -41 -75 -26 -29 -65 -62 -86 -72 -22 -11 -42 -26 -45 -33 -3 -8 -9 -14 -15 -14 -15 0 -35 -24 -31 -37 6 -18 -47 -64 -69 -61 -17 3 -14 9 25 48 25 24 43 48 40 52 -2 5 10 28 29 51 19 23 41 54 51 69 21 34 65 78 77 78 13 0 41 44 43 69 2 30 12 14 13 -22z m-838 -77 c7 -11 18 -20 26 -20 8 0 16 -6 19 -14 3 -7 22 -17 42 -20 20 -4 39 -14 42 -22 3 -7 11 -14 18 -14 7 0 15 -6 18 -14 3 -7 27 -17 53 -21 38 -5 49 -4 56 9 11 20 77 21 102 3 18 -13 18 -15 1 -52 -29 -60 -124 -86 -180 -49 -27 18 -34 40 -10 30 16 -6 21 9 5 19 -5 3 -7 11 -4 18 3 9 -10 13 -46 14 -45 2 -52 0 -60 -21 -4 -13 -24 -41 -44 -62 -28 -30 -46 -40 -91 -49 -48 -10 -64 -9 -123 10 -37 12 -82 29 -100 39 -32 17 -33 18 -18 41 9 13 16 40 16 59 0 19 5 38 10 41 6 3 10 14 10 24 0 29 70 62 121 56 24 -3 58 -2 74 4 44 14 49 13 63 -9z m1415 -114 c4 -10 0 -12 -14 -9 -10 3 -16 9 -13 14 8 13 21 11 27 -5z m-1752 -229 c45 -22 127 -102 116 -113 -9 -9 -68 36 -62 47 4 5 -1 6 -9 3 -9 -3 -16 -1 -16 5 0 6 -6 11 -14 11 -7 0 -31 16 -52 35 -44 40 -30 45 37 12z m879 15 c0 -13 -43 -49 -67 -57 -34 -10 -27 6 15 37 39 29 52 34 52 20z m979 -241 c8 -14 6 -22 -8 -35 -16 -15 -19 -15 -37 5 -19 22 -19 22 3 8 25 -15 43 -5 25 13 -7 7 -12 16 -12 20 0 15 19 8 29 -11z m-128 -42 c-5 -26 -9 -34 -10 -19 -1 27 9 73 15 67 2 -2 0 -23 -5 -48z m-33 -75 c-7 -15 -19 -29 -26 -32 -9 -3 -5 10 10 37 25 43 38 40 16 -5z m-585 15 c44 -12 41 -22 -6 -26 -94 -8 -271 -14 -267 -10 11 11 157 46 195 46 22 1 57 -4 78 -10z m-1137 -25 c29 -8 56 -20 59 -25 4 -5 -51 -9 -139 -9 -79 0 -152 -3 -162 -7 -12 -4 -15 -3 -10 5 5 8 -2 12 -20 12 -39 0 -23 11 38 26 74 17 170 17 234 -2z m-400 -83 c27 -21 34 -22 114 -15 102 10 158 10 310 0 133 -8 209 -28 237 -60 22 -25 43 -78 43 -110 0 -12 7 -34 15 -50 21 -41 19 -57 -14 -94 -16 -17 -31 -39 -33 -48 -2 -9 -12 -22 -23 -28 -10 -6 -27 -21 -37 -33 -11 -13 -25 -19 -36 -16 -10 2 -35 -5 -56 -16 -66 -37 -229 -23 -287 26 -8 7 -22 13 -30 13 -8 0 -23 7 -34 16 -16 12 -17 16 -6 23 9 6 10 11 2 15 -6 4 -11 14 -11 23 0 11 7 14 26 10 30 -5 158 33 201 60 34 21 43 33 43 54 0 14 -14 17 -79 18 -158 3 -300 70 -357 167 -20 35 -32 44 -62 49 -64 10 -70 23 -10 21 40 -2 64 -9 84 -25z m1516 -3 c5 -14 119 -29 133 -17 6 4 24 7 40 5 17 -2 36 -4 43 -5 26 -2 10 -23 -35 -43 -44 -19 -168 -58 -182 -56 -3 0 -40 0 -81 -1 -69 -1 -76 -3 -77 -21 -3 -31 40 -43 128 -36 105 7 170 38 254 120 60 59 85 77 85 61 0 -26 -132 -144 -200 -178 -58 -29 -75 -32 -179 -37 -99 -4 -114 -7 -117 -22 -1 -10 4 -18 11 -18 7 0 15 -4 17 -8 9 -22 78 -62 106 -62 21 0 36 -7 44 -20 8 -12 24 -20 40 -20 21 0 26 -5 25 -20 -1 -11 -8 -20 -17 -21 -8 -1 -4 -4 10 -8 21 -6 12 -11 -55 -33 -143 -47 -271 -45 -324 6 -15 14 -32 26 -39 26 -14 0 -52 36 -52 50 0 5 -11 17 -24 26 -20 12 -23 20 -17 37 6 15 15 21 29 19 25 -4 38 33 27 75 -4 16 -9 44 -11 63 -2 19 -6 45 -9 57 -3 14 4 32 19 50 l24 28 157 -3 c90 -1 163 2 173 8 23 13 50 12 54 -2z m66 5 c-10 -2 -26 -2 -35 0 -10 3 -2 5 17 5 19 0 27 -2 18 -5z m-1602 -118 c13 -13 24 -34 24 -45 0 -12 5 -31 11 -42 8 -16 8 -22 -2 -29 -10 -6 -10 -10 0 -23 8 -9 9 -16 5 -16 -15 0 -48 49 -71 108 -18 44 -20 58 -11 76 8 14 13 17 16 8 2 -7 15 -24 28 -37z m2284 -54 c0 -10 -6 -24 -14 -30 -12 -10 -15 -7 -14 18 1 33 28 45 28 12z m60 -333 c0 -25 -17 -31 -29 -11 -10 17 -10 17 -11 1 0 -10 -4 -18 -9 -18 -5 0 -9 15 -8 33 2 32 3 33 30 23 15 -6 27 -18 27 -28z m-103 -415 c-12 -3 -16 -11 -12 -22 3 -10 1 -29 -4 -42 l-10 -24 0 25 c1 14 -2 35 -6 48 -7 19 -4 22 21 21 18 -1 22 -3 11 -6z m-193 -352 c6 -9 -35 -24 -43 -15 -6 5 18 24 31 24 4 0 9 -4 12 -9z m-84 -102 c0 -7 8 -18 17 -25 10 -7 15 -16 11 -20 -9 -8 -35 12 -49 38 -7 14 -6 18 6 18 8 0 15 -5 15 -11z m-180 -198 c0 -5 -9 -11 -20 -14 -11 -3 -20 -1 -20 3 0 5 8 11 18 13 9 3 18 5 20 6 1 0 2 -3 2 -8z"
       id="path2586"
       style="stroke:none" />
    <path
       d="M1115 2820 l-20 -9 20 0 c11 0 27 4 35 9 13 9 13 10 0 9 -8 0 -24 -4 -35 -9z"
       id="path2588"
       style="stroke:none" />
    <path
       d="M641 1763 c28 -33 131 -73 191 -73 114 0 148 44 37 47 -78 2 -197 22 -205 34 -3 5 -12 9 -21 9 -13 0 -13 -2 -2 -17z"
       id="path2590"
       style="stroke:none" />
    <path
       d="M2729 1428 c-6 -21 -5 -38 2 -38 5 0 9 9 9 20 0 16 -7 28 -11 18z"
       id="path2592"
       style="stroke:none" />
    <path
       d="M2724 1363 c3 -10 8 -30 12 -45 3 -16 11 -28 17 -28 6 0 4 -6 -5 -12 -21 -17 -29 -88 -11 -88 7 0 13 11 13 25 0 14 5 34 12 45 10 15 9 26 -5 55 -9 20 -17 42 -17 50 0 8 -5 15 -11 15 -6 0 -8 -8 -5 -17z"
       id="path2594"
       style="stroke:none" />
    <path
       d="M2699 1330 c-4 -8 -3 -35 1 -60 5 -34 9 -41 15 -27 4 10 4 37 -1 60 -6 25 -12 36 -15 27z"
       id="path2596"
       style="stroke:none" />
    <path
       d="M142 1070 c0 -19 2 -27 5 -17 2 9 2 25 0 35 -3 9 -5 1 -5 -18z"
       id="path2598"
       style="stroke:none" />
    <path
       d="M213 964 c-4 -10 0 -22 9 -28 8 -6 27 -38 42 -71 30 -66 67 -125 79 -125 8 0 -2 49 -13 65 -4 6 -11 21 -15 35 -4 14 -15 34 -24 44 -15 18 -15 19 3 12 19 -6 19 -6 3 12 -9 10 -17 23 -17 29 0 13 -33 43 -49 43 -6 0 -14 -7 -18 -16z"
       id="path2600"
       style="stroke:none" />
    <path
       d="M360 715 c0 -14 43 -93 63 -115 12 -14 18 -20 14 -13 -5 6 -6 17 -2 23 4 6 -3 20 -16 31 -15 13 -22 29 -21 51 1 23 -2 28 -8 18 -7 -10 -10 -11 -10 -2 0 6 -4 12 -10 12 -5 0 -10 -2 -10 -5z"
       id="path2602"
       style="stroke:none" />
    <path
       d="M460 538 c0 -18 -2 -47 -6 -65 -5 -27 -1 -37 24 -60 16 -15 42 -47 56 -70 15 -22 40 -47 56 -53 16 -7 41 -27 55 -46 14 -19 31 -34 38 -34 7 0 31 -22 54 -49 39 -45 51 -52 144 -82 99 -32 102 -32 187 -20 48 6 106 14 130 17 24 4 79 -1 127 -11 47 -9 98 -14 114 -10 17 3 39 1 51 -5 19 -10 21 -10 16 8 -9 29 2 51 24 45 15 -4 18 -1 14 15 -5 16 -11 18 -42 11 -82 -18 -92 -22 -92 -35 0 -22 -62 -17 -110 8 l-43 23 34 5 c33 5 33 6 12 18 -28 15 -28 15 -48 -4 -19 -19 -71 -11 -58 9 13 21 12 37 -3 37 -9 0 -12 -5 -8 -11 4 -8 0 -8 -15 0 -11 7 -21 16 -21 21 0 6 -10 10 -22 11 -22 0 -22 1 -3 9 19 8 19 9 -2 9 -27 1 -41 -18 -22 -30 10 -6 1 -9 -26 -8 -22 1 -46 0 -54 -2 -8 -2 -23 11 -35 32 -20 35 -24 37 -66 34 -29 -3 -50 1 -61 11 -11 10 -23 12 -40 6 -32 -11 -39 -10 -72 12 -16 11 -24 22 -18 25 6 4 4 13 -4 24 -11 15 -13 16 -19 2 -7 -20 -21 -19 -42 2 -13 13 -19 14 -22 5 -6 -19 -31 -14 -25 6 2 10 -3 31 -11 47 -9 17 -16 38 -16 48 0 20 -11 22 -28 5 -6 -6 -15 -8 -19 -4 -5 4 -1 13 8 19 14 11 15 14 1 26 -12 12 -16 12 -23 -2 -6 -9 -17 -13 -29 -10 -16 4 -20 14 -20 44 0 21 -5 41 -10 44 -7 4 -10 -6 -10 -27z"
       id="path2604"
       style="stroke:none" />
    <path
       d="M638 426 c-10 -7 -15 -16 -12 -19 4 -3 13 1 21 9 20 19 13 26 -9 10z"
       id="path2606"
       style="stroke:none" />
    <path
       d="M1710 225 c0 -16 36 -39 49 -30 5 3 12 -3 14 -12 3 -11 5 -8 6 10 1 20 -4 27 -18 27 -11 0 -23 5 -26 10 -9 15 -25 12 -25 -5z"
       id="path2608"
       style="stroke:none" />
    <path
       d="M1970 207 c0 -8 7 -17 15 -21 8 -3 15 -2 15 3 0 5 -7 14 -15 21 -12 10 -15 10 -15 -3z"
       id="path2610"
       style="stroke:none" />
    <path
       d="M1296 194 c-9 -23 -8 -24 15 -24 11 0 18 -4 14 -9 -8 -14 7 -21 59 -27 l46 -5 -25 25 c-14 15 -30 26 -34 26 -5 0 -14 7 -21 15 -16 20 -46 19 -54 -1z"
       id="path2612"
       style="stroke:none" />
    <path
       d="M1686 174 c-17 -17 -22 -54 -7 -54 5 0 12 12 16 28 4 15 9 22 12 16 4 -13 43 -7 43 6 0 8 -24 20 -40 20 -5 0 -16 -7 -24 -16z"
       id="path2614"
       style="stroke:none" />
    <path
       d="M1421 171 c-10 -6 -10 -10 -1 -16 13 -8 24 -1 19 14 -3 6 -10 7 -18 2z"
       id="path2616"
       style="stroke:none" />
    <path
       d="M1920 131 c0 -6 5 -11 11 -11 6 0 9 -6 6 -14 -4 -11 -1 -11 19 -2 28 13 32 29 7 24 -10 -1 -24 1 -30 5 -8 5 -13 4 -13 -2z"
       id="path2618"
       style="stroke:none" />
  </g>
  <g
     id="layer105"
     fill="#919191"
     stroke="none"
     style="fill:#00ffff;stroke:none">
    <path
       d="M753 4903 c-57 -33 -81 -85 -92 -204 -9 -111 10 -331 22 -249 4 25 9 88 13 140 3 56 11 102 20 114 8 11 14 28 14 37 0 10 11 26 25 37 14 11 25 24 25 30 0 6 21 18 48 27 26 9 57 21 70 26 13 5 32 9 42 9 11 0 20 5 20 10 0 6 6 10 13 10 7 0 13 9 14 21 2 17 -3 20 -25 15 -68 -12 -144 -17 -155 -8 -8 5 -27 0 -54 -15z"
       id="path2621"
       style="fill:#00ffff;stroke:none" />
    <path
       d="M1007 4923 c-11 -11 -8 -23 6 -23 8 0 14 7 14 15 0 16 -9 19 -20 8z"
       id="path2623"
       style="fill:#00ffff;stroke:none" />
    <path
       d="M1917 4264 c-16 -17 -5 -51 27 -79 28 -24 32 -33 24 -50 -11 -24 6 -80 22 -70 5 3 10 -3 10 -14 0 -12 -4 -21 -9 -21 -6 0 -3 -12 5 -27 7 -16 14 -33 14 -38 0 -6 18 -35 40 -64 l41 -54 -31 -28 c-16 -15 -30 -34 -30 -42 0 -33 -60 -61 -76 -35 -5 8 -10 7 -18 -4 -10 -13 -20 -14 -64 -5 -28 6 -52 14 -52 17 0 7 -66 4 -119 -6 -25 -4 -31 -8 -20 -14 11 -7 11 -12 2 -21 -10 -10 -16 -9 -31 4 -23 21 -42 21 -68 2 -18 -14 -17 -14 16 -15 l35 0 -25 -14 c-14 -7 -30 -9 -36 -5 -6 5 -19 2 -30 -6 -10 -8 -27 -15 -36 -15 -10 0 -18 -4 -18 -10 0 -5 -9 -10 -21 -10 -12 0 -23 -8 -26 -20 -6 -22 -18 -26 -28 -10 -8 13 -66 -4 -129 -38 -5 -3 -6 0 -2 6 3 6 2 13 -4 17 -5 3 -10 -1 -10 -9 0 -17 -15 -22 -24 -7 -9 14 -56 20 -57 7 0 -6 -6 2 -13 18 -9 20 -15 25 -19 15 -4 -9 -8 -11 -14 -4 -8 11 -53 18 -105 18 -14 0 -47 -10 -72 -22 -25 -11 -61 -21 -80 -21 -18 0 -39 -7 -46 -15 -7 -8 -17 -15 -23 -15 -25 0 -79 -56 -121 -127 -25 -42 -46 -83 -46 -90 0 -6 -9 -27 -19 -45 -33 -56 -32 -108 2 -108 29 0 47 -18 47 -45 0 -22 28 -55 47 -55 6 0 18 -11 27 -24 26 -40 47 -39 142 5 84 40 94 42 173 41 46 -1 129 5 184 13 115 17 166 19 187 5 12 -8 12 -10 -3 -16 -9 -3 -17 -12 -17 -20 0 -8 -8 -14 -18 -14 -10 0 -23 -5 -29 -11 -8 -8 -13 -8 -17 0 -9 14 -91 14 -117 1 -10 -6 -19 -17 -19 -24 0 -12 -6 -12 -29 -3 -47 17 -82 -3 -79 -46 3 -32 4 -33 43 -27 30 4 40 10 45 28 5 22 6 21 18 -8 13 -28 17 -30 72 -30 51 0 61 3 71 22 l11 21 17 -21 c15 -19 74 -41 128 -47 12 -2 35 -6 53 -10 19 -4 36 -2 45 5 9 7 22 9 32 5 32 -14 137 -6 149 10 6 8 21 15 32 15 24 0 31 23 20 64 -10 38 -12 40 -36 25 -18 -11 -24 -10 -40 4 -24 22 -45 88 -32 101 7 7 10 6 10 -2 0 -7 3 -11 8 -10 4 1 20 -2 36 -7 19 -5 31 -4 36 5 7 12 35 1 81 -32 25 -17 73 9 77 42 2 14 12 32 23 40 16 13 19 26 17 65 -4 65 20 73 55 18 20 -32 25 -55 30 -148 5 -84 12 -127 32 -180 50 -130 59 -252 27 -336 -10 -25 -112 -113 -162 -139 -32 -17 -110 -82 -110 -92 0 -10 -110 -118 -121 -118 -5 0 -9 -6 -9 -13 0 -8 -11 -24 -25 -37 -24 -23 -25 -23 -25 -3 0 39 21 78 53 101 27 18 33 27 29 50 -3 22 1 30 21 39 13 6 38 33 55 60 17 26 38 55 45 63 8 8 23 29 33 45 10 17 24 36 31 43 7 7 13 17 13 22 0 5 17 25 38 44 43 40 63 94 64 182 2 71 -7 100 -34 115 -17 9 -24 7 -42 -14 -15 -18 -35 -27 -69 -32 -27 -3 -70 -16 -95 -27 -29 -12 -81 -22 -136 -25 -77 -5 -92 -9 -109 -29 -11 -13 -35 -27 -54 -30 -47 -9 -152 -9 -190 0 -21 5 -61 1 -109 -10 -102 -22 -230 -14 -337 21 -98 32 -107 32 -107 -1 0 -15 -8 -32 -17 -39 -16 -12 -16 -17 1 -90 10 -43 40 -121 67 -174 37 -73 49 -107 49 -142 0 -39 4 -47 25 -57 59 -27 172 -158 118 -138 -8 3 -18 6 -22 6 -4 0 -16 8 -27 18 -28 25 -72 52 -85 52 -7 0 -25 13 -40 30 -16 16 -41 36 -56 44 -15 8 -43 31 -62 50 -18 20 -37 33 -42 30 -5 -2 -21 2 -36 9 -46 24 -172 49 -190 38 -21 -11 -61 3 -86 30 -10 11 -22 17 -28 14 -19 -12 -32 48 -20 93 6 23 11 51 11 61 0 26 36 68 74 86 30 15 78 74 115 143 22 40 11 172 -13 172 -21 0 -79 -79 -73 -100 5 -19 -17 -35 -33 -25 -12 7 -54 -18 -58 -35 -2 -8 -7 -21 -12 -30 -8 -13 -9 -13 -10 3 0 9 -4 17 -10 17 -5 0 -10 -5 -10 -11 0 -7 -7 -17 -15 -23 -13 -10 -29 -113 -27 -178 1 -16 -4 -28 -10 -28 -7 0 -8 25 -4 80 6 65 5 80 -7 80 -7 0 -17 -3 -21 -7 -4 -5 -11 -8 -14 -8 -4 -1 -22 -9 -39 -18 -33 -18 -38 -29 -47 -107 -7 -66 -16 -103 -28 -117 -6 -7 -7 -13 -3 -13 4 0 3 -6 -3 -12 -30 -38 -73 -273 -65 -351 5 -43 3 -48 -32 -80 l-37 -34 5 -74 c5 -81 14 -157 23 -204 3 -16 7 -80 9 -142 2 -61 6 -121 10 -133 4 -12 8 -59 9 -104 2 -46 6 -88 9 -93 4 -6 9 -51 12 -100 8 -142 16 -192 36 -216 l18 -22 1 31 c0 17 -4 55 -10 85 -5 30 -16 113 -25 184 -14 119 -19 170 -30 310 -9 97 -13 141 -25 240 -7 55 -13 111 -15 125 -1 14 -6 42 -10 64 -7 34 -5 40 21 62 16 13 35 23 42 24 15 0 14 -4 16 92 1 82 10 100 48 102 14 1 24 8 27 21 2 11 11 25 21 32 10 7 21 28 25 46 8 38 36 130 42 137 14 16 23 -41 23 -145 1 -66 9 -174 20 -240 29 -183 69 -396 81 -434 12 -35 20 -86 39 -236 14 -106 42 -207 74 -267 139 -255 217 -359 297 -393 26 -11 55 -27 66 -36 10 -9 45 -30 78 -48 33 -19 74 -44 92 -57 17 -13 73 -38 125 -56 83 -28 104 -32 198 -31 58 1 132 1 165 1 33 0 67 0 75 1 8 0 60 3 116 5 123 5 214 30 350 97 55 27 109 49 119 49 10 0 15 3 12 6 -4 4 13 19 36 34 41 27 79 66 124 128 13 17 23 34 23 37 0 3 15 27 33 53 70 102 90 173 101 347 3 48 13 80 42 136 8 15 14 38 14 50 -1 26 16 214 25 292 3 27 10 57 15 67 6 10 10 27 10 38 0 11 9 31 20 45 11 14 23 40 26 59 4 18 11 39 17 46 6 8 6 12 -1 12 -6 0 -9 7 -5 16 5 15 7 14 16 -1 10 -19 2 -106 -12 -114 -13 -9 -42 -71 -33 -71 5 0 19 21 32 46 30 57 45 68 37 26 -4 -18 -3 -32 2 -32 12 0 41 63 41 87 0 26 37 60 75 69 29 7 30 7 13 -13 -10 -11 -18 -26 -18 -35 0 -19 -34 -51 -44 -41 -4 5 -5 -4 -1 -18 4 -17 2 -30 -6 -35 -9 -5 -8 -9 7 -15 17 -7 17 -8 2 -8 -10 -1 -18 -6 -18 -12 0 -6 6 -9 14 -6 10 4 13 -2 12 -24 -1 -16 1 -29 6 -29 4 0 8 19 9 43 1 38 2 35 15 -28 7 -38 12 -79 10 -92 -3 -12 1 -24 7 -27 7 -3 2 -3 -10 0 -19 4 -23 1 -23 -18 0 -13 -3 -34 -6 -48 -5 -24 -5 -24 10 -6 9 11 16 16 16 11 0 -5 -10 -19 -22 -32 -12 -13 -16 -23 -10 -23 7 0 12 -9 12 -19 0 -11 7 -27 16 -36 14 -13 15 -20 5 -39 -7 -12 -11 -26 -10 -32 5 -29 -3 -63 -21 -82 -21 -22 -27 -52 -10 -52 6 0 10 8 10 18 1 15 1 16 10 1 5 -9 22 -20 36 -23 21 -6 25 -11 20 -29 -3 -12 -6 -28 -6 -34 0 -21 -20 -15 -30 10 -9 22 -9 22 -10 -3 -1 -14 -3 -44 -5 -66 -3 -23 4 -73 14 -113 19 -71 18 -76 -18 -71 -13 2 -13 0 -1 -16 14 -15 13 -16 -8 -10 -21 7 -23 5 -20 -16 2 -16 -2 -23 -13 -22 -14 1 -15 -5 -7 -40 6 -28 6 -42 -2 -44 -8 -3 -8 -8 0 -17 12 -14 3 -48 -11 -39 -5 3 -9 -7 -9 -21 0 -14 -4 -24 -9 -20 -5 3 -8 20 -7 38 2 17 1 23 -1 12 -3 -11 -9 -24 -14 -30 -14 -14 -11 -32 8 -50 11 -11 13 -19 5 -24 -6 -3 -12 -27 -14 -51 l-3 -45 -17 45 c-15 42 -17 43 -18 15 -1 -25 -3 -27 -9 -11 -7 18 -8 18 -14 -5 -10 -37 -9 -41 12 -34 16 5 18 2 14 -14 -4 -17 -9 -19 -24 -10 -14 7 -19 7 -17 -3 2 -6 -3 -13 -9 -14 -7 -1 -19 -2 -25 -3 -7 -2 -4 -6 7 -11 20 -9 20 -9 -2 -15 -19 -6 -21 -12 -17 -57 5 -52 -5 -57 -35 -15 -11 15 -15 16 -22 6 -6 -10 -11 -7 -18 11 -8 21 -10 22 -10 5 -1 -35 11 -65 26 -65 17 0 10 -32 -13 -59 -7 -9 -21 -25 -30 -36 -12 -16 -14 -16 -10 -3 7 22 -21 78 -40 78 -16 0 -19 -16 -4 -25 6 -3 10 -21 9 -38 0 -32 0 -32 -13 9 -7 23 -11 55 -9 71 4 25 1 32 -16 38 -12 3 -21 11 -21 16 0 5 -3 9 -7 9 -5 0 -8 -14 -9 -30 -1 -21 4 -30 15 -31 9 0 11 -3 5 -5 -13 -5 8 -58 27 -69 14 -9 11 -19 -10 -32 -16 -10 -20 -9 -25 4 -4 11 -2 14 9 9 8 -3 15 -1 15 4 0 6 -4 10 -10 10 -5 0 -10 9 -10 19 0 11 -4 22 -9 26 -13 7 -18 -43 -9 -77 3 -16 2 -28 -3 -28 -5 0 -9 -7 -9 -15 0 -8 -6 -14 -12 -12 -7 1 -12 -7 -11 -17 2 -24 -19 -45 -54 -55 -36 -9 -63 -3 -63 14 0 8 -5 17 -11 21 -8 5 -10 -1 -6 -18 5 -19 1 -33 -14 -49 -18 -21 -19 -22 -10 -3 11 23 -2 44 -26 44 -16 0 -17 -27 -1 -32 7 -3 6 -7 -5 -11 -11 -4 -17 -1 -17 8 0 8 -2 15 -5 15 -13 0 -41 -38 -42 -58 -1 -12 -9 -29 -17 -38 -9 -9 -13 -21 -9 -27 4 -7 -1 -6 -10 2 -15 12 -17 11 -17 -2 0 -9 5 -19 10 -22 15 -9 13 -18 -12 -48 -20 -25 -23 -26 -40 -10 -13 11 -18 12 -18 3 0 -7 -8 -10 -20 -7 -11 3 -23 1 -26 -4 -3 -5 -12 -5 -22 0 -9 5 -21 10 -27 11 -5 1 -9 6 -8 11 4 11 -28 11 -87 0 -33 -7 -54 -5 -83 6 -36 15 -39 15 -61 -6 -12 -12 -26 -18 -29 -14 -4 3 -7 -1 -7 -10 0 -10 -8 -17 -20 -17 -11 0 -20 -4 -20 -10 0 -15 51 -12 80 5 34 20 182 19 235 -1 22 -8 51 -19 65 -23 59 -18 150 40 150 97 0 40 6 42 63 29 60 -13 93 0 113 49 9 20 28 43 46 52 17 9 50 33 72 53 23 20 60 46 83 57 22 12 50 32 60 46 11 13 33 32 49 43 28 17 79 70 147 153 23 29 34 68 28 103 0 4 4 7 10 7 18 0 48 40 42 56 -3 8 0 14 6 14 6 0 11 4 11 9 0 14 53 71 66 71 6 0 24 12 40 26 22 21 29 37 31 73 1 25 6 64 11 86 5 22 7 78 6 125 -4 117 -4 127 1 282 3 85 1 139 -5 143 -6 4 -8 11 -4 16 3 5 8 21 10 35 3 15 6 29 6 33 5 17 -17 77 -34 95 -15 16 -18 30 -13 63 3 23 2 44 -3 47 -5 3 -9 66 -10 141 0 117 2 136 14 131 10 -4 12 -2 7 7 -4 6 -8 41 -9 77 0 36 -11 117 -23 180 -13 63 -24 120 -25 125 -1 6 -5 16 -10 23 -4 7 -8 36 -9 63 0 27 -4 52 -8 54 -4 3 -26 43 -49 90 -41 82 -43 85 -96 105 -30 11 -66 20 -79 20 -21 0 -25 7 -35 58 -7 31 -20 77 -30 102 -34 81 -130 401 -133 438 0 6 -4 12 -8 12 -5 0 -6 6 -3 14 3 8 0 17 -5 21 -6 3 -9 11 -5 16 3 5 1 15 -4 22 -9 11 -9 25 1 102 3 18 30 72 74 143 8 12 36 39 63 58 28 20 50 42 50 50 0 8 5 14 11 14 6 0 9 5 7 12 -3 7 -30 13 -71 15 -87 3 -131 16 -246 69 -52 24 -100 44 -107 44 -7 0 -53 38 -101 83 -51 49 -94 82 -102 79 -10 -3 -12 1 -8 14 6 17 6 18 -6 2 -11 -14 -14 -15 -23 -1 -5 8 -12 11 -17 7z m-631 -773 c-9 -14 44 -23 60 -10 8 7 14 7 14 1 0 -5 33 -13 73 -17 142 -13 137 -11 141 -37 1 -7 5 -19 10 -26 4 -7 5 -16 2 -19 -3 -3 -1 -12 4 -19 16 -19 -16 -44 -58 -45 -20 -1 -41 -2 -47 -4 -5 -1 -20 -3 -33 -3 -13 -1 -21 -6 -18 -11 3 -5 33 -8 66 -7 67 2 95 -7 70 -24 -16 -11 -159 -14 -184 -4 -22 9 -20 24 3 24 11 0 23 5 27 11 11 18 -291 -12 -310 -31 -6 -6 -21 -10 -35 -10 -15 0 -33 -5 -41 -11 -12 -8 -11 -9 5 -5 22 6 248 36 271 36 20 0 18 -18 -3 -24 -10 -3 -36 -7 -58 -10 -55 -6 -85 -14 -189 -47 -78 -26 -91 -27 -98 -14 -5 8 -16 15 -23 15 -17 0 -20 36 -4 45 7 5 2 16 -12 31 l-23 25 28 24 c16 14 33 25 38 25 5 0 36 18 69 40 56 37 168 80 211 80 10 0 17 4 13 9 -3 5 3 12 12 14 10 3 19 5 21 6 2 0 1 -3 -2 -8z m221 -386 c3 -29 2 -29 -9 -7 -6 12 -15 22 -20 22 -4 0 -8 5 -8 11 0 6 8 9 18 7 11 -2 18 -14 19 -33z m-12 -400 c1 -20 6 -31 18 -33 21 -4 21 -9 0 -30 -16 -16 -16 -17 0 -20 22 -4 22 -22 1 -22 -13 0 -14 -3 -4 -15 6 -8 9 -18 6 -24 -4 -5 16 -7 52 -4 57 5 132 -15 132 -35 0 -5 -13 -27 -29 -49 -32 -45 -88 -67 -142 -57 -36 7 -99 59 -99 81 0 29 -28 11 -34 -22 -5 -27 -18 -42 -54 -67 -26 -18 -60 -34 -77 -35 -16 -2 -47 -6 -68 -9 -24 -4 -49 -1 -70 9 -68 32 -109 47 -117 42 -5 -3 -11 -1 -15 5 -4 6 -11 8 -16 5 -14 -9 -11 5 11 50 11 22 20 60 20 85 0 25 6 52 13 61 22 29 75 49 129 49 29 0 74 7 101 15 26 8 54 12 62 9 12 -5 66 14 105 37 8 4 29 7 45 6 26 -2 30 -6 30 -32z m-1245 -111 c0 -8 -4 -12 -10 -9 -5 3 -10 0 -10 -8 0 -8 -7 -20 -15 -27 -14 -11 -14 -10 -5 16 9 24 26 43 38 44 1 0 2 -7 2 -16z m2465 -40 c19 -8 47 -71 40 -93 -3 -11 -17 -16 -45 -16 -35 0 -40 3 -40 23 0 12 -4 22 -10 22 -17 0 -11 42 8 56 20 15 25 16 47 8z m-2539 -91 c-19 -35 -22 -7 -4 33 9 20 14 23 16 11 2 -8 -4 -28 -12 -44z m144 -3 c4 0 6 -9 3 -20 -9 -33 -19 -14 -20 37 0 31 1 37 4 16 2 -18 8 -33 13 -33z m2360 -151 c0 -27 -2 -30 -15 -19 -8 7 -15 18 -15 24 0 6 5 4 10 -4 8 -12 10 -11 10 8 0 12 2 22 5 22 3 0 5 -14 5 -31z m50 -109 c0 -16 -4 -30 -9 -30 -4 0 -8 13 -7 30 1 39 16 39 16 0z m-620 -228 l64 -19 -64 -10 c-79 -13 -318 -14 -326 -2 -3 5 -2 9 3 10 4 0 40 9 78 19 90 24 163 25 245 2z m-1132 -31 c29 -13 51 -26 48 -28 -3 -3 -107 -6 -233 -8 -125 -1 -236 -6 -245 -10 -13 -5 -18 -3 -18 7 0 15 25 25 135 52 90 23 245 16 313 -13z m-354 -86 c39 3 98 11 131 16 86 13 158 11 228 -6 34 -8 82 -17 107 -20 25 -3 60 -15 78 -25 37 -23 71 -88 72 -136 0 -17 7 -37 15 -44 9 -7 15 -29 15 -54 0 -34 -8 -49 -46 -93 -26 -29 -52 -53 -59 -53 -7 0 -15 -9 -18 -20 -4 -15 -11 -18 -32 -14 -17 3 -46 -4 -74 -17 -40 -19 -56 -21 -123 -15 -46 4 -97 15 -125 28 -26 12 -55 25 -63 28 -29 11 -90 52 -90 61 0 5 -6 9 -14 9 -8 0 -18 9 -21 20 -4 11 -11 18 -16 15 -5 -4 -9 -1 -9 5 0 7 -7 9 -15 6 -10 -4 -19 3 -27 18 -6 14 -19 27 -30 29 -12 3 -17 10 -13 17 4 6 0 19 -9 29 -9 10 -24 46 -32 81 -15 57 -15 63 0 78 15 16 18 15 41 -13 13 -17 29 -43 35 -60 6 -16 18 -43 26 -60 10 -18 12 -31 5 -33 -5 -2 -7 -10 -4 -18 4 -11 9 -12 19 -3 11 9 14 8 14 -5 0 -9 7 -19 15 -22 8 -4 16 -16 16 -28 1 -16 2 -17 6 -3 5 19 23 23 23 5 0 -9 3 -9 12 0 8 8 15 8 24 1 32 -27 169 -1 214 40 16 14 26 31 22 37 -4 6 -37 15 -74 18 -132 14 -230 52 -295 116 -24 22 -46 52 -49 65 -6 24 -51 45 -96 45 -10 0 -18 5 -18 11 0 8 13 9 39 5 24 -3 42 -2 46 4 4 6 21 -2 42 -21 35 -30 37 -31 107 -24z m1748 38 c-10 -4 -10 -8 -1 -19 9 -11 9 -14 -1 -14 -7 0 -45 -30 -85 -67 -106 -100 -215 -146 -330 -142 -22 0 -48 0 -57 0 -21 -1 -25 -31 -4 -31 8 0 16 -6 19 -13 2 -6 29 -21 58 -31 30 -10 59 -22 64 -26 6 -4 30 -11 55 -15 33 -6 40 -10 26 -15 -19 -6 -19 -7 -1 -13 10 -4 34 -5 54 -2 36 5 36 5 9 -8 -15 -7 -36 -22 -47 -34 -11 -11 -46 -29 -78 -38 -32 -10 -63 -22 -69 -27 -6 -4 -57 -9 -113 -9 -92 0 -106 2 -145 25 -24 14 -46 22 -50 19 -3 -3 -6 -1 -6 5 0 7 -5 12 -12 12 -6 0 -22 10 -34 21 -13 13 -41 23 -68 26 -26 3 -47 12 -50 20 -8 21 17 73 54 113 30 31 33 40 36 110 3 70 5 77 35 104 l32 29 142 -7 c117 -6 146 -4 170 8 40 21 81 20 206 -6 l107 -22 38 26 c22 15 44 27 49 27 6 0 4 -3 -3 -6z m542 -122 c3 -5 -1 -11 -9 -15 -9 -3 -15 0 -15 9 0 16 16 20 24 6z m-66 -482 c-10 -7 -10 -9 0 -9 6 0 12 -5 12 -11 0 -14 -18 -2 -30 21 -8 15 -7 17 11 13 16 -4 18 -8 7 -14z"
       id="path2625"
       style="fill:#00ffff;stroke:none" />
    <path
       d="M660 1757 c0 -3 21 -18 48 -34 42 -25 56 -28 125 -27 44 1 84 7 89 12 13 13 -4 18 -127 32 -49 5 -100 13 -112 16 -13 4 -23 4 -23 1z"
       id="path2627"
       style="fill:#00ffff;stroke:none" />
    <path
       d="M2168 1785 c-57 -21 -116 -34 -170 -39 -98 -8 -127 -26 -77 -46 65 -27 230 17 314 84 17 13 28 26 25 28 -3 3 -44 -10 -92 -27z"
       id="path2629"
       style="fill:#00ffff;stroke:none" />
    <path
       d="M736 4105 c3 -50 1 -124 -5 -165 -6 -41 -15 -107 -20 -147 -10 -71 -48 -161 -109 -257 -55 -88 -77 -121 -84 -126 -15 -12 -182 -391 -203 -462 -8 -28 -15 -68 -15 -87 0 -34 0 -35 15 -14 8 12 20 45 26 75 31 154 152 419 263 577 31 43 67 102 80 130 12 28 27 47 31 43 5 -4 5 -1 1 6 -4 7 -1 31 8 55 33 94 46 421 17 450 -8 8 -9 -13 -5 -78z"
       id="path2631"
       style="fill:#00ffff;stroke:none" />
    <path
       d="M2765 1619 c-9 -28 -2 -33 13 -9 6 11 8 21 3 25 -5 3 -13 -4 -16 -16z"
       id="path2633"
       style="fill:#00ffff;stroke:none" />
    <path
       d="M2703 1288 c1 -27 5 -48 10 -48 10 0 8 50 -3 75 -7 15 -9 7 -7 -27z"
       id="path2635"
       style="fill:#00ffff;stroke:none" />
    <path
       d="M2767 1224 c-4 -4 -7 -19 -6 -33 l0 -26 10 24 c10 26 8 47 -4 35z"
       id="path2637"
       style="fill:#00ffff;stroke:none" />
    <path
       d="M220 950 c0 -11 3 -20 8 -20 4 0 20 -29 35 -64 16 -35 39 -79 53 -97 22 -30 24 -31 24 -10 0 13 -6 35 -14 49 -16 32 -38 83 -42 97 -1 6 -7 22 -13 38 -13 33 -51 38 -51 7z"
       id="path2639"
       style="fill:#00ffff;stroke:none" />
    <path
       d="M2658 815 c3 -20 7 -23 18 -14 11 9 11 15 3 25 -18 21 -27 17 -21 -11z"
       id="path2641"
       style="fill:#00ffff;stroke:none" />
    <path
       d="M380 675 c0 -18 33 -65 41 -59 7 4 5 12 -5 23 -9 10 -16 23 -16 29 0 7 -4 12 -10 12 -5 0 -10 -2 -10 -5z"
       id="path2643"
       style="fill:#00ffff;stroke:none" />
    <path
       d="M2518 650 c-21 -23 -9 -34 24 -21 12 6 18 10 11 10 -7 1 -10 8 -7 16 8 20 -7 17 -28 -5z"
       id="path2645"
       style="fill:#00ffff;stroke:none" />
    <path
       d="M2425 530 c-9 -15 -1 -23 21 -18 15 3 16 4 1 16 -11 9 -17 10 -22 2z"
       id="path2647"
       style="fill:#00ffff;stroke:none" />
    <path
       d="M458 468 c-4 -25 1 -37 22 -57 15 -14 40 -45 54 -68 15 -22 40 -47 56 -53 16 -7 41 -27 55 -46 14 -19 31 -34 38 -34 7 0 31 -22 54 -49 39 -45 51 -52 144 -82 109 -35 103 -34 313 -3 22 4 80 -1 132 -11 51 -10 100 -15 109 -12 19 8 20 33 0 41 -8 3 -15 1 -15 -4 0 -25 -127 -2 -158 27 -18 17 -56 17 -46 1 5 -9 2 -9 -9 1 -9 7 -17 10 -18 5 0 -5 -4 0 -9 11 -8 19 -9 19 -9 -2 -1 -34 -27 -28 -55 13 -14 21 -27 31 -31 25 -3 -6 -3 -15 0 -21 3 -5 1 -10 -4 -10 -6 0 -11 9 -11 19 0 10 -6 21 -14 24 -10 4 -12 0 -8 -16 l5 -21 -30 22 c-17 12 -36 34 -44 50 -12 23 -21 28 -51 29 -31 0 -38 -3 -38 -19 0 -14 -5 -18 -16 -14 -9 3 -19 6 -22 6 -4 0 -1 4 7 9 12 8 11 12 -3 27 -15 14 -22 15 -37 6 -33 -21 -114 23 -102 55 5 13 3 13 -15 4 -12 -7 -22 -17 -23 -24 0 -7 -4 -2 -10 11 -6 17 -14 22 -27 18 -31 -10 -53 25 -54 83 0 28 -2 51 -5 51 -2 0 -18 -13 -35 -30 -39 -39 -52 -38 -44 3 5 25 2 36 -14 50 -27 22 -27 22 -32 -15z m582 -347 c7 -13 7 -22 0 -26 -5 -3 -10 3 -10 14 0 10 -6 22 -12 24 -10 4 -10 6 -1 6 7 1 17 -8 23 -18z"
       id="path2649"
       style="fill:#00ffff;stroke:none" />
    <path
       d="M526 477 c-8 -31 -7 -39 3 -33 12 8 21 45 11 51 -4 3 -10 -5 -14 -18z"
       id="path2651"
       style="fill:#00ffff;stroke:none" />
    <path
       d="M2217 320 c3 -11 9 -20 14 -20 11 0 11 3 3 24 -9 23 -23 20 -17 -4z"
       id="path2653"
       style="fill:#00ffff;stroke:none" />
    <path
       d="M1715 229 c-10 -15 3 -25 16 -12 7 7 7 13 1 17 -6 3 -14 1 -17 -5z"
       id="path2655"
       style="fill:#00ffff;stroke:none" />
    <path
       d="M1100 214 c0 -3 8 -19 17 -37 9 -18 16 -35 15 -39 -1 -5 3 -8 8 -8 20 0 22 29 3 54 -17 24 -43 42 -43 30z"
       id="path2657"
       style="fill:#00ffff;stroke:none" />
    <path
       d="M1310 195 c0 -9 7 -15 16 -13 10 2 19 -3 22 -11 3 -8 0 -11 -7 -7 -6 4 -11 3 -11 -2 0 -10 23 -22 41 -22 18 0 8 29 -17 49 -32 25 -44 26 -44 6z"
       id="path2659"
       style="fill:#00ffff;stroke:none" />
    <path
       d="M1560 121 c0 -9 68 -6 78 3 3 3 -13 6 -36 6 -23 0 -42 -4 -42 -9z"
       id="path2661"
       style="fill:#00ffff;stroke:none" />
    <path
       d="M1990 110 c-15 -28 -4 -39 17 -17 13 12 14 20 6 28 -8 8 -14 5 -23 -11z"
       id="path2663"
       style="fill:#00ffff;stroke:none" />
    <path
       d="M1563 86 c-22 -10 -31 -26 -15 -26 10 1 46 29 41 33 -2 2 -14 -2 -26 -7z"
       id="path2665"
       style="fill:#00ffff;stroke:none" />
  </g>
  <g
     id="layer107"
     fill="#fbfbfb"
     stroke="none"
     style="stroke:none">
    <path
       d="M719 4879 c-11 -11 -27 -36 -35 -55 -26 -63 -38 -314 -14 -314 4 0 8 37 9 83 2 76 38 242 62 290 13 23 4 22 -22 -4z"
       id="path2719"
       style="stroke:none" />
    <path
       d="M737 4089 c3 -41 0 -108 -6 -149 -6 -41 -15 -107 -20 -147 -7 -45 -22 -96 -42 -135 -35 -70 -95 -172 -118 -203 -16 -20 -16 -20 7 -1 37 32 110 150 140 228 43 108 74 410 48 457 -12 21 -13 15 -9 -50z"
       id="path2721"
       style="stroke:none" />
    <path
       d="M2232 3979 c-10 -15 -10 -19 0 -20 7 0 3 -4 -9 -9 -26 -11 -28 -20 -11 -67 8 -22 9 -36 2 -43 -7 -7 -6 -37 4 -93 11 -64 11 -90 2 -121 -8 -27 -8 -42 -1 -49 14 -14 14 -50 1 -42 -5 3 -10 1 -10 -4 0 -6 5 -11 10 -11 6 0 10 -9 10 -19 0 -11 3 -21 8 -23 18 -7 83 -120 79 -136 -4 -16 -5 -16 -6 1 -1 19 -9 21 -30 8 -11 -7 -10 -16 8 -53 11 -24 21 -49 21 -54 1 -5 9 -27 20 -49 11 -22 19 -50 20 -62 0 -12 9 -40 20 -61 17 -33 19 -44 9 -65 -10 -21 -9 -31 4 -51 13 -19 17 -56 19 -170 3 -138 2 -145 -19 -168 -13 -14 -23 -28 -23 -33 0 -22 -55 -117 -74 -127 -11 -6 -25 -17 -29 -24 -4 -8 -19 -14 -31 -14 -13 0 -38 -13 -56 -30 -18 -16 -27 -30 -20 -30 7 0 -4 -11 -24 -25 -21 -14 -42 -23 -47 -19 -6 3 -20 -3 -32 -14 -32 -29 -62 -42 -96 -42 -21 0 -31 -5 -31 -15 0 -8 -6 -15 -13 -15 -8 0 -46 -25 -86 -56 l-72 -57 -40 19 c-37 18 -39 21 -34 52 3 18 20 52 36 76 24 34 30 53 31 97 0 103 -2 106 -47 60 -27 -29 -137 -81 -173 -81 -9 -1 -35 -8 -57 -17 -26 -10 -81 -17 -155 -19 -63 -2 -128 -5 -143 -7 -21 -3 -31 1 -39 17 -19 35 -38 44 -77 35 -19 -4 -38 -6 -41 -4 -3 2 -5 -8 -4 -23 0 -15 17 -45 37 -68 20 -23 41 -54 47 -69 5 -14 15 -23 20 -20 6 4 10 3 9 -2 -1 -4 0 -15 4 -23 3 -8 8 -27 11 -42 3 -14 14 -29 24 -31 9 -3 2 -5 -15 -6 -18 0 -33 3 -33 9 0 16 -56 39 -81 33 -20 -5 -22 -3 -11 8 16 18 15 39 -2 39 -8 0 -17 6 -19 13 -4 9 -6 9 -6 0 -1 -15 -71 -18 -71 -4 0 5 -10 13 -22 17 -13 4 -26 11 -29 17 -8 12 -76 37 -101 37 -10 0 -18 7 -18 15 0 11 -12 15 -52 14 -29 0 -71 0 -93 0 -21 0 -46 -6 -55 -13 -8 -7 -23 -16 -32 -19 -10 -4 -18 -11 -18 -17 0 -5 -9 -10 -19 -10 -11 0 -26 -8 -33 -19 -7 -10 -17 -18 -22 -17 -10 1 -44 -97 -45 -129 -1 -17 1 -17 9 -5 9 13 10 13 10 0 0 -18 54 -63 102 -86 32 -15 38 -15 107 6 117 35 222 41 306 20 68 -18 184 -73 234 -111 13 -11 29 -19 36 -19 27 0 63 -47 79 -103 9 -32 26 -66 38 -75 11 -9 25 -22 32 -28 16 -15 64 -26 70 -15 3 5 20 12 38 15 41 8 74 54 83 116 4 30 14 51 28 62 12 9 30 24 40 32 9 9 20 16 25 16 4 0 21 12 37 28 45 40 87 59 219 92 91 23 130 29 170 24 50 -6 184 -36 240 -54 18 -6 46 -5 78 1 27 6 52 8 55 5 4 -3 -1 -6 -9 -6 -9 0 -19 -7 -22 -16 -4 -11 -1 -14 12 -11 71 20 91 15 57 -13 -13 -11 -13 -14 2 -25 23 -17 15 -24 -30 -27 -20 -2 -37 -6 -37 -10 0 -5 -7 -8 -16 -8 -8 0 -48 -31 -89 -70 -93 -88 -161 -121 -267 -127 -55 -4 -75 -9 -72 -18 18 -46 220 -49 254 -3 3 3 25 9 50 12 25 2 45 5 45 7 0 1 10 3 22 4 18 2 21 -1 13 -16 -6 -11 -6 -19 0 -21 15 -5 -11 -67 -42 -102 -16 -17 -28 -34 -28 -39 0 -12 -21 -30 -50 -43 -33 -15 -130 -35 -139 -29 -5 2 -39 -7 -76 -20 -49 -18 -88 -25 -141 -25 -40 0 -76 -5 -79 -10 -8 -12 -47 -13 -60 -1 -6 4 -35 17 -65 27 -30 10 -60 22 -67 27 -7 5 -25 6 -42 2 -28 -6 -101 11 -167 40 -29 13 -33 12 -50 -11 -11 -14 -29 -26 -41 -27 -13 -1 -23 -5 -23 -9 0 -4 -8 -8 -18 -8 -11 0 -34 -8 -53 -17 -51 -26 -276 -22 -444 8 -49 8 -67 7 -98 -6 -33 -14 -36 -18 -27 -36 6 -11 17 -22 24 -25 7 -3 13 -23 14 -46 1 -22 7 -47 13 -54 7 -9 6 -19 -5 -36 -8 -13 -16 -32 -17 -43 -4 -28 27 -83 69 -124 19 -19 40 -49 48 -66 7 -18 27 -44 44 -58 16 -14 30 -30 30 -34 0 -5 18 -20 40 -33 22 -14 40 -28 40 -32 0 -5 9 -8 20 -8 11 0 23 -7 26 -15 4 -8 10 -15 15 -15 5 0 25 -16 45 -35 20 -20 41 -35 48 -34 6 1 18 0 26 -3 8 -3 42 -13 75 -23 33 -10 69 -21 80 -25 29 -10 287 -4 327 8 18 6 62 13 98 16 36 4 96 13 135 21 38 8 80 15 92 15 13 0 23 5 23 11 0 5 4 8 9 5 11 -7 71 13 71 24 0 5 14 11 30 15 17 4 30 10 30 15 0 10 67 50 84 50 7 0 19 12 27 27 22 44 34 54 48 40 9 -9 13 -6 17 11 7 24 29 30 37 10 4 -10 6 -10 6 -1 1 20 63 147 77 158 16 13 51 124 65 207 6 41 16 69 25 72 11 4 13 15 9 40 -6 29 -3 36 15 46 12 6 19 17 17 25 -6 13 14 79 26 91 4 4 7 17 7 29 0 12 3 25 8 29 4 4 12 65 19 134 6 70 16 159 23 197 11 68 41 133 57 127 4 -2 9 5 11 15 3 15 1 16 -8 3 -8 -11 -9 -8 -4 15 4 17 14 38 22 48 13 14 13 17 1 17 -12 0 -15 32 -17 188 -1 103 -5 216 -7 252 l-5 65 20 -30 c11 -16 20 -36 20 -43 0 -20 23 -9 36 16 l11 22 13 -25 c7 -14 19 -25 26 -25 22 0 43 -182 24 -205 -7 -8 -10 -26 -8 -40 3 -14 1 -25 -3 -25 -5 0 -9 5 -9 12 0 6 -3 8 -7 4 -5 -4 0 -14 11 -21 10 -8 15 -18 12 -23 -3 -6 -3 -17 0 -26 5 -12 11 -7 25 21 21 41 25 56 8 33 -8 -12 -9 -9 -4 10 19 66 12 218 -12 288 -5 15 -4 15 10 2 9 -8 26 -55 38 -105 12 -49 29 -119 38 -155 12 -46 15 -77 9 -105 -5 -22 -10 -60 -12 -84 -3 -24 -11 -48 -18 -52 -7 -5 -13 -13 -13 -18 0 -5 -9 -20 -20 -33 -27 -31 -22 -65 11 -65 13 0 25 6 25 13 4 47 19 73 37 68 13 -5 14 -4 4 4 -16 11 -17 63 -3 112 16 50 14 92 -9 205 -46 234 -104 414 -147 457 -38 37 -126 55 -122 24 8 -64 -17 -42 -36 32 -22 87 -59 212 -101 337 -103 311 -116 360 -112 411 5 61 52 143 140 244 l59 69 -48 7 c-86 13 -166 10 -169 -6 -2 -8 -7 -28 -12 -45 l-10 -30 -17 40 c-19 44 -45 79 -61 82 -5 1 -15 -7 -22 -18z m548 -1325 c7 -19 10 -37 8 -40 -8 -7 -49 56 -43 66 12 19 23 10 35 -26z m-335 -834 c3 -5 0 -10 -7 -11 -10 0 -10 -2 0 -6 22 -9 12 -20 -20 -21 -45 -1 -52 7 -27 29 24 21 45 24 54 9z"
       id="path2723"
       style="stroke:none" />
    <path
       d="M1011 3521 c-16 -12 -20 -20 -12 -25 6 -4 8 -12 5 -18 -5 -8 3 -9 25 -5 18 4 40 3 49 -2 11 -6 40 -3 80 7 61 16 76 34 34 40 -12 2 -22 8 -22 13 0 5 -4 9 -10 9 -5 0 -10 -7 -10 -15 0 -8 -4 -15 -10 -15 -5 0 -10 4 -10 9 0 13 -43 1 -57 -16 -15 -20 -33 -8 -26 17 7 25 -5 25 -36 1z"
       id="path2725"
       style="stroke:none" />
    <path
       d="M482 3344 c-13 -26 -21 -49 -18 -52 3 -3 9 4 12 14 4 10 16 31 26 46 20 29 22 38 10 38 -4 0 -18 -21 -30 -46z"
       id="path2727"
       style="stroke:none" />
    <path
       d="M1214 3197 c-3 -8 -13 -13 -24 -10 -10 3 -21 0 -24 -6 -5 -7 10 -11 44 -11 44 0 51 3 48 17 -4 22 -36 29 -44 10z"
       id="path2729"
       style="stroke:none" />
    <path
       d="M1145 3146 c-47 -20 -12 -30 56 -16 33 7 58 14 57 15 -13 11 -89 11 -113 1z"
       id="path2731"
       style="stroke:none" />
    <path
       d="M1662 3134 c-12 -23 -10 -56 7 -98 6 -16 9 -37 6 -47 -4 -11 -2 -19 4 -19 6 0 11 -7 11 -15 0 -23 41 -19 47 5 5 20 33 29 33 10 0 -5 5 -10 11 -10 8 0 9 12 4 38 -8 44 -23 65 -42 58 -9 -4 -13 4 -14 27 -1 23 -3 26 -6 10 -6 -30 -23 -30 -23 0 0 13 -6 32 -14 42 -13 18 -14 18 -24 -1z"
       id="path2733"
       style="stroke:none" />
    <path
       d="M1455 3051 c-7 -24 13 -70 37 -85 21 -12 23 -10 31 29 6 34 -8 59 -40 69 -16 5 -23 2 -28 -13z"
       id="path2735"
       style="stroke:none" />
    <path
       d="M1566 3028 c3 -23 14 -52 25 -66 l19 -25 0 50 c0 36 -5 55 -18 66 -27 25 -31 21 -26 -25z"
       id="path2737"
       style="stroke:none" />
    <path
       d="M1825 2851 c-27 -10 -66 -24 -85 -31 -19 -6 -48 -17 -64 -23 l-29 -11 24 -9 c13 -6 28 -9 32 -8 4 1 38 4 74 7 63 6 66 5 60 -15 -3 -12 0 -21 6 -21 8 0 7 -3 -1 -9 -9 -5 -15 -38 -18 -97 -2 -49 -7 -104 -10 -121 -3 -18 -3 -33 -1 -33 9 0 44 36 50 53 3 9 11 17 17 17 5 0 10 6 10 14 0 8 7 16 15 20 8 3 12 12 9 20 -3 8 -1 17 5 21 6 3 11 22 11 41 0 19 5 34 10 34 6 0 10 9 10 20 0 11 -7 20 -15 20 -8 0 -15 6 -15 14 0 13 -38 14 -59 1 -20 -12 -11 24 9 38 12 8 18 21 15 29 -4 9 1 18 9 21 22 9 20 27 -1 26 -10 0 -40 -9 -68 -18z"
       id="path2739"
       style="stroke:none" />
    <path
       d="M1308 2795 c-6 -6 -185 -33 -241 -37 -21 -1 -41 -6 -43 -10 -3 -5 -2 -8 3 -7 10 3 46 -12 53 -21 3 -4 31 -12 64 -18 57 -12 60 -11 110 18 71 42 89 57 81 69 -7 12 -18 14 -27 6z"
       id="path2741"
       style="stroke:none" />
    <path
       d="M172 2698 c-1 -25 -5 -55 -8 -65 -5 -17 -5 -17 6 0 6 9 9 39 7 65 l-3 47 -2 -47z"
       id="path2743"
       style="stroke:none" />
    <path
       d="M241 2689 c-7 -12 -10 -23 -8 -26 3 -3 11 5 17 17 15 28 8 35 -9 9z"
       id="path2745"
       style="stroke:none" />
    <path
       d="M191 2649 c1 -8 -1 -22 -6 -32 -12 -27 0 -31 17 -5 13 20 13 25 1 37 -12 11 -14 11 -12 0z"
       id="path2747"
       style="stroke:none" />
    <path
       d="M912 2591 c-11 -6 -9 -9 7 -14 14 -3 18 -10 14 -26 -4 -14 -1 -21 9 -21 25 0 29 13 11 33 -10 10 -17 22 -15 25 6 10 -12 12 -26 3z"
       id="path2749"
       style="stroke:none" />
    <path
       d="M84 2376 c-3 -8 -4 -23 -2 -33 3 -11 6 -6 9 15 6 34 2 42 -7 18z"
       id="path2751"
       style="stroke:none" />
    <path
       d="M2731 2177 c-1 -19 22 -33 39 -22 6 3 8 11 4 16 -4 6 -11 6 -19 -1 -10 -8 -14 -7 -18 7 -4 17 -5 17 -6 0z"
       id="path2753"
       style="stroke:none" />
    <path
       d="M2757 2121 c2 -7 -2 -20 -8 -28 -21 -25 -3 -23 19 2 16 18 18 25 8 25 -8 0 -16 3 -19 8 -2 4 -2 1 0 -7z"
       id="path2755"
       style="stroke:none" />
    <path
       d="M2700 2120 c-1 -8 -5 -36 -9 -62 -4 -26 -4 -45 1 -42 4 3 8 14 8 25 0 11 5 29 10 40 7 13 8 25 1 37 -8 14 -11 14 -11 2z"
       id="path2757"
       style="stroke:none" />
    <path
       d="M2727 2034 c-4 -4 -7 -17 -7 -28 1 -19 1 -20 11 -3 11 19 8 43 -4 31z"
       id="path2759"
       style="stroke:none" />
    <path
       d="M2264 1881 c4 -5 0 -12 -6 -14 -8 -4 -7 -6 4 -6 23 -1 48 9 48 20 0 5 -12 9 -26 9 -14 0 -23 -4 -20 -9z"
       id="path2761"
       style="stroke:none" />
    <path
       d="M2851 1873 c0 -11 3 -13 6 -5 2 6 9 10 14 6 5 -3 9 0 9 5 0 6 -7 11 -15 11 -8 0 -15 -8 -14 -17z"
       id="path2763"
       style="stroke:none" />
    <path
       d="M2862 1758 c-7 -7 -12 -19 -12 -27 0 -11 5 -8 16 7 18 25 15 39 -4 20z"
       id="path2765"
       style="stroke:none" />
    <path
       d="M670 1641 c0 -6 5 -13 10 -16 6 -3 10 -14 10 -25 0 -23 19 -30 80 -30 38 0 55 5 76 25 27 25 27 26 8 40 -22 16 -184 21 -184 6z"
       id="path2767"
       style="stroke:none" />
    <path
       d="M2832 1600 c0 -19 2 -27 5 -17 2 9 2 25 0 35 -3 9 -5 1 -5 -18z"
       id="path2769"
       style="stroke:none" />
    <path
       d="M2911 1533 c-1 -24 22 -32 35 -11 5 7 2 9 -9 5 -10 -4 -17 0 -20 11 -3 12 -5 11 -6 -5z"
       id="path2771"
       style="stroke:none" />
    <path
       d="M52 1450 c0 -19 2 -27 5 -17 2 9 2 25 0 35 -3 9 -5 1 -5 -18z"
       id="path2773"
       style="stroke:none" />
    <path
       d="M2907 1384 c-4 -4 -7 -14 -7 -23 0 -11 3 -12 11 -4 6 6 10 16 7 23 -2 6 -7 8 -11 4z"
       id="path2775"
       style="stroke:none" />
    <path
       d="M82 1110 c0 -19 2 -27 5 -17 2 9 2 25 0 35 -3 9 -5 1 -5 -18z"
       id="path2777"
       style="stroke:none" />
    <path
       d="M2872 1036 c2 -22 9 -41 16 -44 9 -3 11 4 6 25 -12 50 -24 61 -22 19z"
       id="path2779"
       style="stroke:none" />
    <path
       d="M2932 950 c0 -19 2 -27 5 -17 2 9 2 25 0 35 -3 9 -5 1 -5 -18z"
       id="path2781"
       style="stroke:none" />
    <path
       d="M2791 896 c-7 -9 -1 -11 24 -8 41 5 44 8 10 14 -14 3 -29 0 -34 -6z"
       id="path2783"
       style="stroke:none" />
    <path
       d="M250 890 c0 -5 7 -16 16 -24 8 -9 13 -16 10 -16 -9 0 32 -77 44 -85 17 -10 11 13 -15 70 -23 47 -55 80 -55 55z"
       id="path2785"
       style="stroke:none" />
    <path
       d="M2632 519 c-24 -23 -36 -28 -45 -20 -17 13 -67 -31 -67 -59 0 -11 -6 -20 -13 -20 -7 0 -23 -9 -35 -20 -12 -11 -30 -20 -42 -20 -11 0 -23 -7 -26 -15 -5 -11 -11 -12 -25 -4 -16 8 -19 6 -19 -9 0 -25 -83 -102 -109 -102 -12 0 -21 -4 -21 -10 0 -5 -6 -10 -14 -10 -7 0 -21 -10 -30 -23 l-17 -22 7 25 c6 22 5 23 -10 11 -9 -7 -16 -19 -16 -26 0 -12 -35 -29 -54 -26 -17 3 -43 -10 -44 -22 -9 -67 -7 -65 -76 -101 -34 -18 -53 -23 -60 -16 -5 5 -21 10 -35 10 l-26 -1 29 -15 c40 -22 89 -20 131 6 40 25 55 48 55 84 0 33 7 36 63 23 60 -13 93 0 113 49 9 20 28 43 46 52 17 9 50 33 72 53 23 20 60 46 83 57 22 12 50 32 60 46 11 13 33 32 49 43 26 16 123 113 113 113 -2 0 -19 -14 -37 -31z"
       id="path2787"
       style="stroke:none" />
    <path
       d="M522 395 c-13 -25 28 -88 68 -105 16 -7 41 -27 55 -46 14 -19 31 -34 38 -34 7 0 31 -22 54 -49 38 -44 52 -52 135 -79 53 -17 115 -30 143 -30 28 1 42 3 33 5 -10 2 -18 9 -18 14 0 6 -8 6 -19 -1 -25 -13 -71 6 -71 29 0 14 -2 14 -10 1 -7 -12 -13 -12 -33 -1 -14 7 -30 11 -35 7 -6 -3 -17 0 -24 8 -8 8 -23 15 -33 17 -28 6 -30 27 -2 24 16 -2 23 3 24 16 2 16 -1 17 -19 8 -18 -9 -19 -8 -13 10 4 13 2 21 -5 21 -6 0 -9 -4 -6 -8 2 -4 1 -14 -5 -22 -6 -10 -9 -11 -9 -2 0 6 -7 12 -17 12 -9 0 -14 3 -10 6 7 7 -12 28 -33 37 -9 3 -3 6 14 6 24 1 27 3 16 16 -11 14 -15 14 -36 0 -20 -13 -25 -13 -38 1 -9 8 -16 19 -16 23 0 5 -16 19 -35 32 -34 23 -52 53 -46 74 1 6 -1 7 -5 3 -4 -4 -12 0 -19 9 -11 15 -13 15 -23 -2z"
       id="path2789"
       style="stroke:none" />
    <path
       d="M915 219 c-4 -11 -4 -23 -2 -26 9 -8 27 7 27 22 0 23 -18 27 -25 4z"
       id="path2791"
       style="stroke:none" />
    <path
       d="M866 158 c-3 -13 -1 -27 4 -32 7 -7 10 1 10 22 0 37 -5 41 -14 10z"
       id="path2793"
       style="stroke:none" />
    <path
       d="M952 117 c2 -19 7 -22 30 -19 32 5 38 22 8 22 -11 0 -20 5 -20 10 0 6 -4 10 -10 10 -5 0 -9 -10 -8 -23z"
       id="path2795"
       style="stroke:none" />
    <path
       d="M1065 112 c-7 -20 23 -52 49 -52 30 0 46 13 37 29 -6 9 -11 10 -15 3 -4 -6 -13 -9 -22 -5 -12 5 -12 7 2 18 15 11 14 13 -14 17 -21 3 -33 0 -37 -10z"
       id="path2797"
       style="stroke:none" />
    <path
       d="M1186 95 c-18 -14 -17 -15 25 -15 24 0 76 -7 114 -15 87 -18 115 -19 115 -2 0 10 -16 14 -52 14 -83 1 -178 14 -172 24 8 14 -9 10 -30 -6z"
       id="path2799"
       style="stroke:none" />
    <path
       d="M1606 53 c-3 -7 -20 -16 -38 -22 -33 -9 -33 -9 -5 -10 15 -1 42 6 59 15 24 13 53 15 129 12 68 -2 95 0 88 7 -15 15 -227 14 -233 -2z"
       id="path2801"
       style="stroke:none" />
  </g>
  <path
     style="fill:#800080;stroke:none;stroke-width:10px;stroke-linecap:butt;stroke-linejoin:miter;stroke-opacity:1"
     d="m 1020,2525 140,-126 97,45 12.4739,106.1817 L 1195,2559 l -60,20 z"
     id="path3357"
     inkscape:connector-curvature="0" />
  <path
     style="fill:#ff5555;stroke:none;stroke-width:10px;stroke-linecap:butt;stroke-linejoin:miter;stroke-opacity:1"
     d="m 1490,2455 133.1396,84.0133 L 1633,2492 l -9.8604,-49.7794 -63.2875,-14.8912 z"
     id="path3359"
     inkscape:connector-curvature="0" />
  <path
     style="fill:#241f1c;stroke:none;stroke-width:10px;stroke-linecap:butt;stroke-linejoin:miter;stroke-opacity:1"
     d="m 1914.1189,1802.3317 23,50 185,-15 -76.2876,-31.7228 -55.4122,-23.5461 -81.9015,-22.3368 z"
     id="path3361"
     inkscape:connector-curvature="0"
     sodipodi:nodetypes="ccccccc" />
  <path
     style="fill:#d35f5f;stroke:none;stroke-width:10px;stroke-linecap:butt;stroke-linejoin:miter;stroke-opacity:1"
     d="m 1840,1853 -10,-23 -28.1661,-65.3285 78.1788,-81.9016 134.0207,-18.614 148.9119,48.3964 L 2245,1812 l 43,34 137,62 v 0 L 2315.58,1805.6222 2218.7872,1705.1067 2088.4893,1652.9876 1913,1607 l -107.4433,53.4331 -59.5647,78.1788 -52.1192,104.2383 z"
     id="path3363"
     inkscape:connector-curvature="0" />
  <path
     style="fill:#483737;stroke:none;stroke-width:10px;stroke-linecap:butt;stroke-linejoin:miter;stroke-opacity:1"
     d="M 368.55694,1872.6326 507,1869 558.4196,1835.4046 660,1757 c 0,0 109,-86 156,-85 47,1 174.2641,33.1067 174.2641,33.1067 l 126.5751,22.3368 L 1152,1812 l -177,-3 5,-54 v 0 L 923.25375,1768.3943 933,1808 l 12,13 -321,34 -113,34 z"
     id="path3365"
     inkscape:connector-curvature="0" />
  <path
     style="fill:#800000;stroke:none;stroke-width:10px;stroke-linecap:butt;stroke-linejoin:miter;stroke-opacity:1"
     d="M 688.71751,1809.345 815.29262,1716.2751 965,1735 Z"
     id="path3367"
     inkscape:connector-curvature="0" />
  <path
     style="fill:#241f1c;stroke:none;stroke-width:16.6587925px;stroke-linecap:butt;stroke-linejoin:miter;stroke-opacity:1"
     d="M 847.18801,1821.378 792.86674,1795.1428 919.88433,1735 l 121.87627,62.5287 z"
     id="path3369"
     inkscape:connector-curvature="0"
     sodipodi:nodetypes="ccccc"
     inkscape:transform-center-x="-12.538816"
     inkscape:transform-center-y="-39.486229" />
  <path
     style="fill:#2b1100;stroke:none;stroke-width:10px;stroke-linecap:butt;stroke-linejoin:miter;stroke-opacity:1"
     d="M 368.55694,1872.6326 525,1860 725,1720 863,1673 1116.8392,1727.4435 1152,1812 1184.5869,1747.9237 1146,1688 1058.2309,1690.0106 863,1673 670,1641 507,1869 Z"
     id="path3371"
     inkscape:connector-curvature="0" />
  <path
     style="fill:#ff0000;stroke:none;stroke-width:10px;stroke-linecap:butt;stroke-linejoin:miter;stroke-opacity:1"
     d="m 397,1787 c 109,-32 164,-155 164,-155 l 158,-126 164,18 38.34534,102.8326 L 816,1672 l 242.2309,18.0106 126.356,57.9131 57.9131,-100.0318 31.589,-110.5614 -89.5021,-94.7669 -194.79876,-68.4428 -231.65255,31.5889 L 494.89407,1489.947 434,1620 l 34.56992,54.2161 z"
     id="path3373"
     inkscape:connector-curvature="0" />
  <path
     style="fill:#ff0000;stroke:none;stroke-width:10px;stroke-linecap:butt;stroke-linejoin:miter;stroke-opacity:1"
     d="M 883,1524 834,1415 989.78814,1374.1208 1121.4089,1484.6822 1110,1550 l -88.6229,3.125 z"
     id="path3375"
     inkscape:connector-curvature="0" />
  <path
     style="fill:none;stroke:none;stroke-width:10px;stroke-linecap:butt;stroke-linejoin:miter;stroke-opacity:1"
     d="m 1658,1865 -41.697,-127.6059 89.5021,-63.178 L 1750,1615 l 55.5567,45.4331 -111.6839,182.4171 z"
     id="path3377"
     inkscape:connector-curvature="0" />
  <path
     style="fill:#d40000;stroke:none;stroke-width:10px;stroke-linecap:butt;stroke-linejoin:miter;stroke-opacity:1"
     d="m 1616.303,1737.3941 -84.2373,-121.0911 -31.589,-100.0318 126.3559,-42.1187 L 1741,1441 l -145,95 51.892,111.8919 z"
     id="path3379"
     inkscape:connector-curvature="0" />
  <path
     style="fill:#008000;stroke:none;stroke-width:10px;stroke-linecap:butt;stroke-linejoin:miter;stroke-opacity:1"
     d="m 1616.303,1737.3941 26.3241,-168.4746 42.1187,-78.9725 L 1805,1591 1616.303,1737.3941 1805.5567,1660.4331 1663.6864,1521.536 1811.1017,1410.9746 2071,1395 2200.6992,1500.4767 2035,1550 l -153,62 -76.4433,48.4331 z"
     id="path3381"
     inkscape:connector-curvature="0" />
  <path
     style="fill:#803300;stroke:none;stroke-width:10px;stroke-linecap:butt;stroke-linejoin:miter;stroke-opacity:1"
     d="M 737.07627,2974.6292 764,2857 c 0,0 -115.40042,-56.5064 -58,-80 57.40042,-23.4936 180,-359 180,-359 l -122,101 -258,50 c 0,0 -58.48941,121.3284 -21.63559,126.5932 36.85381,5.2648 110.56144,115.8263 110.56144,115.8263 L 615.98517,2969.3644 661,3129 l 102.40042,-80.6631 -10.52966,-63.178 z"
     id="path3383"
     inkscape:connector-curvature="0" />
  <path
     style="fill:#0000ff;stroke:none;stroke-width:10px;stroke-linecap:butt;stroke-linejoin:miter;stroke-opacity:1"
     d="M 1095.0847,2069.0784 C 1095.0847,2069.0784 991,2163 991,2163 L 869,2193 694.95763,2248.0826 510.68856,2232.2881 394.86229,2105.9322 373.80297,2000.6356 511,1889 318,1924 c 0,0 -92.98729,527.4068 -49.49364,455.7034 C 312,2308 312,2308 312,2308 c 0,0 9.15466,108.5572 51.27331,113.822 42.11864,5.2649 184.26906,10.5297 205.32839,10.5297 21.05932,0 205.32839,-57.9131 205.32839,-57.9131 L 1005,2241 Z"
     id="path3385"
     inkscape:connector-curvature="0" />
  <path
     style="fill:#550000;stroke:none;stroke-width:10px;stroke-linecap:butt;stroke-linejoin:miter;stroke-opacity:1"
     d="m 876,3135 c 0,0 303,111 303,111 l 216.1801,-18.6589 168.4746,21.0593 L 1637,3327 l 21.4216,89.875 -231.6525,100.0318 -284.3009,-52.6483 L 896,3301 837.10805,3237.8708 Z"
     id="path3389"
     inkscape:connector-curvature="0" />
  <path
     style="fill:#550000;stroke:none;stroke-width:10px;stroke-linecap:butt;stroke-linejoin:miter;stroke-opacity:1"
     d="m 984.52331,3116.7797 -135.72551,-82.6343 -95.92704,-48.9865 c 0,0 -88.55975,-156.3924 11.12924,-128.1589 99.68899,28.2335 331,-46 331,-46 v 0 l 213,-16 339,-9 377,225 -279,-105 -196,8 -186.4562,-28.7665 L 1113,2903 l -38,-22 -69.8447,48.907 L 1045,3078 l 249,13 z"
     id="path3393"
     inkscape:connector-curvature="0" />
  <path
     style="fill:#483e37;stroke:none;stroke-width:10px;stroke-linecap:butt;stroke-linejoin:miter;stroke-opacity:1"
     d="m 1189,3635 c 125,54 197.2585,67.911 257,96 59.7415,28.089 446,135 446,135 l 50.7225,156.3305 c 0,0 -168.4746,126.3559 -168.4746,147.4153 0,21.0593 -189.5339,447.5106 -189.5339,447.5106 0,0 105.2966,-221.1229 142.1504,-221.1229 36.8538,0 110.5614,-110.5615 126.3559,-147.4153 15.7945,-36.8538 52.6483,-126.3559 52.6483,-126.3559 L 1996,4003 c 0,0 36.2246,-85.9661 36.2246,-112.2903 C 2032.2246,3864.3856 1929,3793 1929,3793 l -210,-88 z"
     id="path3413"
     inkscape:connector-curvature="0" />
  <path
     style="fill:#806600;stroke:none;stroke-width:10px;stroke-linecap:butt;stroke-linejoin:miter;stroke-opacity:1"
     d="m 1744,3709 c 61.8369,-13.089 361.9322,-139.4449 361.9322,-139.4449 L 2041,4139 l 101.786,-27.1674 -500.1589,494.8941 c 0,0 -46.2267,-152.8602 16.3729,-181.7267 62.5996,-28.8665 184,-101 184,-101 L 1905.8686,4122.3623 1989,3923 l -14,-99 z"
     id="path3415"
     inkscape:connector-curvature="0" />
  <path
     style="fill:#aa0000;stroke:none;stroke-width:10px;stroke-linecap:butt;stroke-linejoin:miter;stroke-opacity:1"
     d="M 251,2294 197,2145 163,2159 78,2100 -2,2063 191,1013 452.77542,1253.0297 312,2308 Z"
     id="path3427"
     inkscape:connector-curvature="0" />
  <path
     style="fill:#00ff00;stroke:none;stroke-width:10px;stroke-linecap:butt;stroke-linejoin:miter;stroke-opacity:1"
     d="M 191,1013 452.77542,1253.0297 741,854 l 388,-259 318,-33 73,-332 -251,31 -98,-82 -153,48 -103,-8 -161,81 -137,48 -74,96"
     id="path3429"
     inkscape:connector-curvature="0" />
  <path
     style="fill:#ff2a2a;stroke:none;stroke-width:10px;stroke-linecap:butt;stroke-linejoin:miter;stroke-opacity:1"
     d="m 421,616 c 0,0 27,95 5,142 -22,47 -176,132 -176,132 l -37,74 -84,11 323.77542,278.0297 z"
     id="path3431"
     inkscape:connector-curvature="0" />
  <path
     style="fill:#008080;stroke:none;stroke-width:10px;stroke-linecap:butt;stroke-linejoin:miter;stroke-opacity:1"
     d="m 1447,562 358,14 347,134 76,92 234,375 c 0,0 27,164 60,199 33,35 180,208 134,355 -46,147 25,308 25,308 0,0 116,55 95,-12 -21,-67 -172,-245 -83,-292 89,-47 61,-186 61,-186 0,0 -26,-59 -9,-130 17,-71 73,-218 73,-218 0,0 34,-130 -18,-127 -52,3 -16,-199 -79,-229 -63,-30 -151,-128 -151,-128 l -111,-49 c 0,0 -119,-6 -106,-71 13,-65 -22,-124 -22,-124 0,0 54,-138 -3,-120 -57,18 -237,-18 -237,-18 L 1985,186 c 0,0 72,-178 -12,-128 -84,50 -126,166 -191,190 -65,24 -168,-85 -168,-85 l -175,6 -129,26 215,49 z"
     id="path3433"
     inkscape:connector-curvature="0" />
  <path
     style="fill:#ffff00;stroke:none;stroke-width:10px;stroke-linecap:butt;stroke-linejoin:miter;stroke-opacity:1"
     d="m 2858,2089 -152,-302 48,-238 c 0,0 94,-260 94,-260 0,0 -48,-215 -48,-215 l -53,-121 -35,-162 -163,-48 -154,-93 c 0,0 -3,-12 -16,-65 -13,-53 -4,-159 -4,-159 l -190,-82 c 0,0 -90,18 -94,-9 -4,-27 -21,-157 -21,-157 l -33,-31 284,167 c 0,0 204,61 235,123 31,62 139,258 139,258 l 96,76 47,203 10,315 23,585 z"
     id="path3435"
     inkscape:connector-curvature="0" />
  <path
     style="fill:#008080;stroke:none;stroke-width:10px;stroke-linecap:butt;stroke-linejoin:miter;stroke-opacity:1"
     d="m 251,2294 -3,316 c 0,0 -8,203 18,193 26,-10 102.53814,197.9534 102.53814,197.9534 l 31.58898,221.1229 284.30085,10.5296 -68.4428,-263.2415 L 594.92585,2811.4195 430,2695 389,2505 Z"
     id="path3437"
     inkscape:connector-curvature="0" />
  <path
     style="fill:#ffcc00;stroke:none;stroke-width:10px;stroke-linecap:butt;stroke-linejoin:miter;stroke-opacity:1"
     d="m 2637,2042 -7,603 59,-118 50,19 37,-284 -6,-107 2,160 16,299 c 0,0 -8,40 -8,40 L 2866.554,2438.4978 2923,2153 l -62,-167 -52,95 h -99 z"
     id="path3443"
     inkscape:connector-curvature="0" />
  <path
     style="fill:#de8787;stroke:none;stroke-width:10px;stroke-linecap:butt;stroke-linejoin:miter;stroke-opacity:1"
     d="m 1787,1951 534.7903,-16.1748 -363.2733,81.6049 z"
     id="path3445"
     inkscape:connector-curvature="0" />
  <path
     style="fill:#803300;stroke:none;stroke-width:10px;stroke-linecap:butt;stroke-linejoin:miter;stroke-opacity:1"
     d="M 550.97401,1902.415 C 565.8652,1906.1378 1026,1913 1026,1913 l -206.98458,67.5937 z"
     id="path3447"
     inkscape:connector-curvature="0" />
  <path
     style="fill:#241f1c;stroke:none;stroke-width:10px;stroke-linecap:butt;stroke-linejoin:miter;stroke-opacity:1"
     d="M 852.90254,3606.4089 C 904,3623 1022,3666 1070,3651 c 48,-15 199,40 199,40 0,0 57.7373,-63.5318 84.0614,-58.267 C 1379.3856,3637.9979 1513,3662 1574,3681 c 61,19 170,28 170,28 l -93.3339,253.985 -330.626,59.1905 -330.25196,-131.4658 -163.20975,-173.7394 z"
     id="path3451"
     inkscape:connector-curvature="0"
     sodipodi:nodetypes="csccscccccc" />
</svg>
